<?xml version="1.0" encoding="UTF-8" standalone="no"?>
<svg xmlns:dc="http://purl.org/dc/elements/1.1/" xmlns:cc="http://creativecommons.org/ns#" xmlns:rdf="http://www.w3.org/1999/02/22-rdf-syntax-ns#" xmlns:svg="http://www.w3.org/2000/svg" xmlns="http://www.w3.org/2000/svg" xmlns:sodipodi="http://sodipodi.sourceforge.net/DTD/sodipodi-0.dtd" xmlns:inkscape="http://www.inkscape.org/namespaces/inkscape" xml:space="preserve" width="297mm" height="210mm" style="shape-rendering:geometricPrecision; text-rendering:geometricPrecision; image-rendering:optimizeQuality; fill-rule:evenodd; clip-rule:evenodd" viewBox="0 0 297 210" version="1.1" id="svg206" sodipodi:docname="moldeComRosto.svg" inkscape:version="1.0.2 (e86c870879, 2021-01-15)">
  <title id="title1035">Molde com Rosto</title>
  <metadata id="metadata210">
    <rdf:RDF>
      <cc:Work rdf:about="">
        <dc:format>image/svg+xml</dc:format>
        <dc:type rdf:resource="http://purl.org/dc/dcmitype/StillImage" />
        <dc:title>Molde com Rosto</dc:title>
      </cc:Work>
    </rdf:RDF>
  </metadata>
  <sodipodi:namedview pagecolor="#ffffff" bordercolor="#666666" borderopacity="1" objecttolerance="10" gridtolerance="10" guidetolerance="10" inkscape:pageopacity="0" inkscape:pageshadow="2" inkscape:window-width="1366" inkscape:window-height="705" id="namedview208" showgrid="false" inkscape:zoom="2.7113492" inkscape:cx="744.65391" inkscape:cy="330.79186" inkscape:window-x="-8" inkscape:window-y="-8" inkscape:window-maximized="1" inkscape:current-layer="layer1" />
  <defs id="defs113">
    <style type="text/css" id="style111">
      <![CDATA[
    .str0 {stroke:aqua;stroke-width:0.2}
    .fil0 {fill:none}
    .fil1 {fill:black}
   ]]>
    </style>
  </defs>
  <g inkscape:groupmode="layer" id="layer1" inkscape:label="Molde" style="display:inline">
    <g class="dsgn-0 cat-layer cat-ey clip-ha" id="g1255" transform="matrix(0.71164903,0,0,0.73602147,130.02835,37.768219)">
      <g class="des-layer des-loaded" id="g1253">
        <path id="path3297" style="fill:#ffffff" d="m 93.928041,65.099031 c 0.200352,-1.010583 0.928456,-4.626493 0.09944,-5.503942 -3.695844,-2.944545 -9.894932,-0.911611 -12.132369,0.552428 -1.352277,1.696027 -0.669582,4.673678 0.867418,5.570232 2,1 9.325825,0.999998 11.165511,-0.618718 z" />
        <path id="path3205" class="m" style="fill:#32cd32" d="M 91.500001,62 A 3.499996,3.4999997 0 0 1 87.999997,65.5 3.499996,3.4999997 0 0 1 84.500001,62 3.499996,3.4999997 0 0 1 87.999997,58.5 3.499996,3.4999997 0 0 1 91.500001,62 Z" />
        <path id="path4244" class="s" style="opacity:0.75;fill:#1e7b1e" d="m 87.437676,59.251622 0.04434,1.284192 -0.960358,-0.817395 0.625253,1.252475 -1.517831,-0.873569 1.043921,1.202408 -1.393531,-0.167252 1.411483,0.605076 -1.696639,0.164456 1.699512,0.279476 -1.426075,0.595524 1.402599,-0.114249 -1.033458,1.397452 1.472146,-1.084586 -0.632302,1.553336 0.832006,-1.085716 -0.11326,1.534935 0.607748,-1.672234 0.259439,1.586296 0.21177,-1.542458 0.894789,1.489483 -0.355872,-1.531876 1.104782,0.807507 -0.963222,-1.201351 1.64291,0.970883 -1.174105,-1.159891 1.115511,0.132547 -1.180517,-0.642877 1.660048,-0.216498 -1.444812,-0.305002 1.042669,-0.670048 -1.353114,0.364937 1.531585,-1.016836 -1.759653,0.715434 0.892466,-1.293559 -1.12806,0.894367 0.342903,-1.398274 -0.784618,1.37672 -0.206586,-1.568232 -0.173041,1.585522 -0.540789,-1.431122 z" />
        <path id="path4260" class="s" style="fill:#1e7b1e" d="m 87.546496,59.9268 0.01596,0.797173 -0.676499,-0.582596 0.323214,0.887158 -0.988674,-0.449956 0.639016,0.781768 -1.023379,-0.09025 1.000832,0.483035 -1.132811,0.166628 1.116852,0.234375 -0.935816,0.481071 0.959483,-0.07238 -0.769426,1.080633 1.111155,-0.78303 -0.434149,1.199313 0.65513,-0.878398 -0.10531,1.223221 0.521149,-1.249885 0.236825,1.147585 0.185718,-1.119522 0.731416,1.1596 -0.26396,-1.206314 0.816962,0.622713 -0.635484,-0.919069 1.265616,0.69737 -0.943695,-0.917969 0.919692,0.110719 -0.900773,-0.550102 1.249282,-0.186551 -1.094995,-0.26802 0.759995,-0.489228 -1.105229,0.237276 1.050887,-0.730469 -1.183767,0.40715 0.591291,-0.935815 -0.820524,0.652785 0.19582,-0.941244 -0.556306,0.838283 -0.1716,-0.940114 -0.164338,0.924155 z" />
        <path id="path4263" style="opacity:0.5;fill:#000000" d="m 87.66299,60.277972 -0.03928,0.576202 -0.477625,-0.328479 0.146437,0.544653 -0.701412,-0.206888 0.340706,0.516603 -0.515146,0.03128 0.536793,0.350453 -0.668772,0.166628 0.641764,0.201229 -0.482825,0.348489 0.473347,0.03811 -0.327485,0.594498 0.636068,-0.341089 -0.168984,0.691081 0.367868,-0.359117 0.04937,0.54926 0.355421,-0.60907 0.225776,0.672498 0.152572,-0.677581 0.466251,0.62927 -0.05404,-0.609692 0.463408,0.236014 -0.292979,-0.565516 0.746335,0.332768 -0.446511,-0.498124 0.544041,-0.01082 -0.514073,-0.406471 0.685806,-0.186552 -0.465228,-0.234873 0.262811,-0.279306 -0.674336,0.0605 0.56475,-0.476352 -0.708679,0.208276 0.37032,-0.648553 -0.566407,0.453911 0.107432,-0.709224 -0.401627,0.551021 -0.138454,-0.630755 -0.15329,0.58165 z" />
        <path id="path4267-8" style="fill:#000000" d="m 81.470111,60.892715 c 3.000139,-2.6654 9.340272,-3.103075 12.746093,-1.09375 -1.878658,-3.747958 -12.120429,-2.297607 -12.746093,1.09375 z" />
        <path id="path4271" style="fill:#000000" d="m 82.099172,65.167699 c 1.966255,2.859803 10.008935,1.874103 11.910154,-0.09609 -3.708622,1.154892 -8.846197,1.60648 -11.910154,0.09609 z" />
        <ellipse id="path3211" style="fill:#000000" cx="88" cy="62" rx="1.5000001" ry="1.4999993" />
        <path id="path4657" class="s" style="opacity:0.5;fill:#1e7b1e" d="m 85.917707,64.729147 c -2.648594,-2.272369 -1.192652,-4.920173 0.262783,-5.897874 1.455437,-0.9777 6.163784,-0.265891 5.167559,4.460934 -0.272434,-1.843483 -2.455692,-3.439176 -3.81242,-2.977759 -1.356727,0.461418 -2.316564,1.646751 -1.617922,4.414699 z" />
        <path id="path3207" class="s" style="fill:#1e7b1e" d="m 85.42868,64.391183 c -1.870622,-2.214406 -0.712465,-4.475108 0.742983,-5.452809 1.455437,-0.9777 5.212438,-0.508099 5.425229,3.348271 -1.047863,-2.052109 -2.483835,-2.915369 -4.369298,-2.52387 -1.382353,0.287033 -2.539333,2.044346 -1.798914,4.628408 z" />
        <ellipse id="ellipse4659" class="h" style="fill:#84e184" cx="89.402512" cy="59.707539" rx="0.69325191" ry="0.67658567" />
        <ellipse id="path3209" style="fill:#ffffff" cx="89.431786" cy="59.795383" rx="0.5" ry="0.49504599" />
        <ellipse id="path3213" style="fill:none;stroke:#000000;stroke-width:0.5;stroke-linecap:round;stroke-linejoin:round" cx="88" cy="62" rx="3.499999" ry="3.5" />
        <path id="path4284" style="fill:#ffffff" d="m 106.07196,65.099031 c -0.20035,-1.010583 -0.92846,-4.626493 -0.0994,-5.503942 3.69584,-2.944545 9.89493,-0.911611 12.13237,0.552428 1.35228,1.696027 0.66958,4.673678 -0.86742,5.570232 -2,1 -9.32582,0.999998 -11.16551,-0.618718 z" />
        <path id="path4286" class="m" style="fill:#32cd32" d="M 115.5,62 A 3.499996,3.4999997 0 0 1 112,65.5 3.499996,3.4999997 0 0 1 108.5,62 3.499996,3.4999997 0 0 1 112,58.5 3.499996,3.4999997 0 0 1 115.5,62 Z" />
        <path id="path4288" class="s" style="opacity:0.75;fill:#1e7b1e" d="m 110.38446,59.705609 0.54568,1.163331 -1.2044,-0.373934 1.06737,0.905736 -1.73907,-0.206382 1.43263,0.695077 -1.34705,0.394166 1.53571,0.0013 -1.49531,0.81834 1.67251,-0.411299 -1.07704,1.108298 1.2447,-0.656558 -0.40074,1.691252 0.92711,-1.576083 0.0294,1.67684 0.33807,-1.325409 0.49941,1.45583 -0.0987,-1.776508 0.86228,1.356507 -0.41179,-1.501483 1.40839,1.017667 -0.92955,-1.268552 1.33331,0.308056 -1.35801,-0.725839 1.89233,0.246675 -1.53562,-0.604793 1.07778,-0.316756 -1.33821,-0.126908 1.4412,-0.851799 -1.44836,0.287675 0.69522,-1.026061 -1.10062,0.867594 1.00838,-1.537158 -1.3366,1.349712 0.31194,-1.540285 -0.68553,1.265889 -0.23452,-1.420479 -0.18008,1.574343 -0.80658,-1.360679 0.46433,1.52585 -1.05996,-1.103203 z" />
        <path id="path4290" class="s" style="fill:#1e7b1e" d="m 110.75,60.283613 0.32817,0.726668 -0.85109,-0.269662 0.64601,0.688609 -1.08596,-0.02496 0.89493,0.467534 -0.97643,0.319419 1.11015,0.05059 -0.97604,0.598638 1.11905,-0.223661 -0.67128,0.810292 0.85373,-0.443824 -0.28252,1.29613 0.71374,-1.156868 0.0724,1.273417 0.25697,-1.065245 0.38415,1.166099 -0.0123,-1.354126 0.66899,0.962025 -0.26944,-1.102372 1.12846,0.778599 -0.71703,-1.005355 0.996,0.25132 -0.94567,-0.595164 1.43789,0.143547 -1.22865,-0.472957 0.88915,-0.259828 -1.04451,-0.151603 1.07529,-0.662749 -1.11217,0.184122 0.50641,-0.748654 -0.92291,0.652748 0.67901,-1.084847 -0.92832,0.839821 0.17569,-1.092935 -0.49775,0.922837 -0.19005,-0.942424 -0.18188,0.989504 -0.52744,-0.796914 0.21229,0.91433 z" />
        <path id="path4292" style="opacity:0.5;fill:#000000" d="m 110.99519,60.560693 0.19043,0.545242 -0.56831,-0.114213 0.3488,0.443201 -0.72626,0.08558 0.5164,0.341021 -0.46136,0.231322 0.63135,0.111154 -0.54938,0.416171 0.6692,-0.06728 -0.3069,0.510266 0.45021,-0.151084 -0.0674,0.675383 0.45072,-0.563721 0.11639,0.701856 0.19702,-0.474836 0.2614,0.485594 0.0873,-0.699763 0.47202,0.52955 -0.12619,-0.682989 0.67613,0.39525 -0.28939,-0.539348 0.51888,0.03478 -0.49174,-0.404762 0.81707,0.0125 -0.60641,-0.28243 0.49596,-0.223868 -0.63249,-0.17159 0.55721,-0.441191 -0.52011,-0.03302 0.13181,-0.360146 -0.59622,0.320776 0.33195,-0.660044 -0.56969,0.470157 0.0855,-0.741926 -0.34232,0.640067 -0.18009,-0.69434 -0.1526,0.664556 -0.37533,-0.525503 0.0877,0.595074 z" />
        <path id="path4294" style="fill:#000000" d="m 118.52989,60.892715 c -3.00014,-2.6654 -9.34027,-3.103075 -12.74609,-1.09375 1.87865,-3.747958 12.12042,-2.297607 12.74609,1.09375 z" />
        <path id="path4296" style="fill:#000000" d="m 117.90083,65.167699 c -1.96626,2.859803 -10.00894,1.874103 -11.91016,-0.09609 3.70863,1.154892 8.8462,1.60648 11.91016,0.09609 z" />
        <ellipse id="ellipse4298" style="fill:#000000" cx="112" cy="62" rx="1.5000001" ry="1.4999993" />
        <path id="path4300" class="s" style="opacity:0.5;fill:#1e7b1e" d="m 109.91771,64.729147 c -2.6486,-2.272369 -1.19266,-4.920173 0.26278,-5.897874 1.45544,-0.9777 6.16378,-0.265891 5.16756,4.460934 -0.27244,-1.843483 -2.45569,-3.439176 -3.81242,-2.977759 -1.35673,0.461418 -2.31657,1.646751 -1.61792,4.414699 z" />
        <path id="path4302" class="s" style="fill:#1e7b1e" d="m 109.42868,64.391183 c -1.87062,-2.214406 -0.71246,-4.475108 0.74298,-5.452809 1.45544,-0.9777 5.21244,-0.508099 5.42523,3.348271 -1.04786,-2.052109 -2.48383,-2.915369 -4.3693,-2.52387 -1.38235,0.287033 -2.53933,2.044346 -1.79891,4.628408 z" />
        <ellipse id="ellipse4304" class="h" style="fill:#84e184" cx="113.40251" cy="59.707539" rx="0.69325191" ry="0.67658567" />
        <ellipse id="ellipse4306" style="fill:#ffffff" cx="113.43179" cy="59.795383" rx="0.5" ry="0.49504599" />
        <ellipse id="ellipse4308" style="fill:none;stroke:#000000;stroke-width:0.5;stroke-linecap:round;stroke-linejoin:round" cx="112" cy="62" rx="3.499999" ry="3.5" />
      </g>
    </g>
  </g>
</svg>
