<?xml version="1.0" encoding="UTF-8" standalone="no"?>
<svg xmlns:dc="http://purl.org/dc/elements/1.1/" xmlns:cc="http://creativecommons.org/ns#" xmlns:rdf="http://www.w3.org/1999/02/22-rdf-syntax-ns#" xmlns:svg="http://www.w3.org/2000/svg" xmlns="http://www.w3.org/2000/svg" xmlns:sodipodi="http://sodipodi.sourceforge.net/DTD/sodipodi-0.dtd" xmlns:inkscape="http://www.inkscape.org/namespaces/inkscape" xml:space="preserve" width="297mm" height="210mm" style="shape-rendering:geometricPrecision; text-rendering:geometricPrecision; image-rendering:optimizeQuality; fill-rule:evenodd; clip-rule:evenodd" viewBox="0 0 297 210" version="1.1" id="svg206" sodipodi:docname="moldeComRosto.svg" inkscape:version="1.0.2 (e86c870879, 2021-01-15)">
	<title id="title1035">Molde com Rosto</title>
	<metadata id="metadata210">
		<rdf:RDF>
			<cc:Work rdf:about="">
				<dc:format>image/svg+xml</dc:format>
				<dc:type rdf:resource="http://purl.org/dc/dcmitype/StillImage" />
				<dc:title>Molde com Rosto</dc:title>
			</cc:Work>
		</rdf:RDF>
	</metadata>
	<sodipodi:namedview pagecolor="#ffffff" bordercolor="#666666" borderopacity="1" objecttolerance="10" gridtolerance="10" guidetolerance="10" inkscape:pageopacity="0" inkscape:pageshadow="2" inkscape:window-width="1366" inkscape:window-height="705" id="namedview208" showgrid="false" inkscape:zoom="2.7113492" inkscape:cx="744.65391" inkscape:cy="330.79186" inkscape:window-x="-8" inkscape:window-y="-8" inkscape:window-maximized="1" inkscape:current-layer="layer1" />
	<defs id="defs113">
		<style type="text/css" id="style111">
			<![CDATA[
    .str0 {stroke:aqua;stroke-width:0.2}
    .fil0 {fill:none}
    .fil1 {fill:black}
   ]]>
		</style>
	</defs>
	<g inkscape:groupmode="layer" id="layer1" inkscape:label="Molde" style="display:inline">
		<g class="dsgn-0 cat-layer cat-ey clip-ha" id="g1255" transform="matrix(0.71164903,0,0,0.73602147,130.02835,37.768219)">
			<g class="des-layer des-loaded" id="g1253">
				<path id="path6418" style="fill:#ffffff;" d="m 94,62 c -3,-2.666667 -10,-2.222223 -12,0 2,2.222222 9,2.666667 12,0 z"></path>
				<path id="path6418-7" style="fill:#ffffff;" d="m 106,62 c 3,-2.666666 10,-2.222222 12,0 -2,2.222222 -9,2.666667 -12,0 z"></path>
				<path id="path3205-3" class="m" style="fill:#32cd32;" d="M 87.625 60.166016 C 87.000081 60.180634 86.385944 60.241689 85.798828 60.337891 A 2.7657506 2.7552063 0 0 0 85.234375 62 A 2.7657506 2.7552063 0 0 0 85.798828 63.662109 C 87.199798 63.891664 88.764292 63.897608 90.21875 63.638672 A 2.7657506 2.7552063 0 0 0 90.765625 62 A 2.7657506 2.7552063 0 0 0 90.21875 60.361328 C 89.373824 60.210906 88.491256 60.145752 87.625 60.166016 z "></path>
				<path id="path4244" class="s" style="opacity:0.75;fill:#1e7b1e;" d="M 87.625 60.166016 C 87.605284 60.166477 87.586105 60.169377 87.566406 60.169922 L 87.589844 60.847656 L 86.839844 60.208984 C 86.838557 60.209089 86.837224 60.20888 86.835938 60.208984 L 87.326172 61.189453 L 86.126953 60.501953 L 86.951172 61.449219 L 85.849609 61.316406 L 86.964844 61.792969 L 85.625 61.923828 L 86.96875 62.142578 L 85.841797 62.611328 L 86.949219 62.521484 L 86.132812 63.621094 L 87.296875 62.767578 L 86.876953 63.792969 C 86.899565 63.794742 86.922656 63.795214 86.945312 63.796875 L 87.453125 63.136719 L 87.402344 63.822266 C 87.452717 63.824265 87.502227 63.828629 87.552734 63.830078 L 87.84375 63.027344 L 87.976562 63.830078 C 88.021465 63.829986 88.066384 63.830611 88.111328 63.830078 L 88.216797 63.0625 L 88.669922 63.814453 C 88.72086 63.811754 88.771374 63.806014 88.822266 63.802734 L 88.642578 63.029297 L 89.515625 63.664062 L 88.753906 62.71875 L 90.052734 63.484375 L 89.125 62.570312 L 90.005859 62.673828 L 89.074219 62.167969 L 90.384766 61.998047 L 89.244141 61.757812 L 90.068359 61.230469 L 88.998047 61.517578 L 90.208984 60.716797 L 88.818359 61.28125 L 89.523438 60.261719 L 88.632812 60.966797 L 88.820312 60.197266 C 88.785736 60.195043 88.751397 60.191408 88.716797 60.189453 L 88.283203 60.949219 L 88.179688 60.169922 C 88.142547 60.169297 88.105478 60.170246 88.068359 60.169922 L 87.982422 60.962891 L 87.681641 60.166016 C 87.662829 60.166379 87.643796 60.165576 87.625 60.166016 z "></path>
				<path id="path4260" class="s" style="fill:#1e7b1e;" d="m 87.641634,60.367973 0.01261,0.627536 -0.53458,-0.45862 0.255408,0.698372 -0.781265,-0.354206 0.50496,0.615409 -0.808689,-0.07105 0.790872,0.380246 -0.895164,0.13117 0.882553,0.184501 -0.739496,0.3787 0.758198,-0.05698 -0.608012,0.850676 0.878052,-0.616402 -0.343071,0.944101 0.517693,-0.691476 -0.08322,0.962921 0.41182,-0.983911 0.187143,0.903381 0.146757,-0.88129 0.577976,0.912839 -0.208585,-0.949613 0.645576,0.490201 -0.50217,-0.723493 1.00011,0.548971 -0.745723,-0.722626 0.726755,0.08716 -0.711805,-0.433042 0.987202,-0.146853 -0.865282,-0.210986 0.60056,-0.385121 -0.873369,0.186784 0.830427,-0.575026 -0.935431,0.320509 0.467248,-0.736675 -0.648391,0.513873 0.15474,-0.740949 -0.439602,0.659898 -0.135601,-0.740059 -0.129862,0.727496 z"></path>
				<path id="path4263" style="opacity:0.5;fill:#000000;" d="m 87.733689,60.644417 -0.03104,0.453587 -0.377427,-0.258579 0.115717,0.428752 -0.554267,-0.162863 0.269231,0.406671 -0.407076,0.02462 0.424182,0.275878 -0.528474,0.13117 0.507132,0.158407 -0.381536,0.274332 0.374046,0.03 -0.258783,0.46799 0.50263,-0.268506 -0.133533,0.54402 0.290694,-0.282697 0.03901,0.432378 0.28086,-0.479461 0.178411,0.529392 0.120565,-0.533393 0.368439,0.495362 -0.0427,-0.47995 0.366193,0.18579 -0.231517,-0.445175 0.589765,0.261956 -0.352839,-0.392125 0.429909,-0.0085 -0.406228,-0.319975 0.541934,-0.146854 -0.36763,-0.184892 0.207677,-0.219871 -0.532871,0.04763 0.446275,-0.374985 -0.560009,0.163955 0.292632,-0.510542 -0.447583,0.35732 0.08489,-0.558303 -0.317372,0.433765 -0.109408,-0.496532 -0.121132,0.457876 z"></path>
				<ellipse id="path3211" style="fill:#000000;" cx="88" cy="62" rx="1.1853231" ry="1.1808022"></ellipse>
				<path id="path4657" class="s" style="opacity:0.5;fill:#1e7b1e;" d="M 87.625 60.166016 C 86.972583 60.181277 86.332888 60.247526 85.722656 60.351562 C 85.115839 61.230407 84.875438 62.486364 85.892578 63.679688 C 86.017125 63.699089 86.146586 63.710702 86.273438 63.726562 C 85.924477 61.856724 86.635106 61.01185 87.632812 60.673828 C 88.70492 60.310599 90.431203 61.566385 90.646484 63.017578 C 90.897403 61.831575 90.687753 60.968325 90.251953 60.365234 C 89.397134 60.210537 88.502424 60.145491 87.625 60.166016 z "></path>
				<path id="path3207" class="s" style="fill:#1e7b1e;" d="M 87.625 60.166016 C 86.988783 60.180898 86.364229 60.244365 85.767578 60.34375 C 85.132992 61.200942 84.91208 62.432868 85.822266 63.667969 C 85.857543 63.673677 85.892253 63.680123 85.927734 63.685547 C 85.458451 61.762752 86.33309 60.456627 87.388672 60.238281 C 88.878593 59.930092 90.01376 60.611139 90.841797 62.226562 C 90.797527 61.427338 90.557202 60.816879 90.208984 60.359375 C 89.367011 60.210213 88.487932 60.14583 87.625 60.166016 z "></path>
				<path id="ellipse4659" style="fill:#e6e6e6;" d="M 88.560547 60.177734 A 0.5478183 0.53260952 0 0 0 88.560547 60.195312 A 0.5478183 0.53260952 0 0 0 89.107422 60.728516 A 0.5478183 0.53260952 0 0 0 89.648438 60.277344 C 89.288368 60.230795 88.925668 60.194107 88.560547 60.177734 z "></path>
				<path id="path3209" style="fill:#ffffff;" d="M 88.744141 60.191406 A 0.39510769 0.38970113 0 0 0 88.736328 60.263672 A 0.39510769 0.38970113 0 0 0 89.130859 60.654297 A 0.39510769 0.38970113 0 0 0 89.527344 60.263672 A 0.39510769 0.38970113 0 0 0 89.527344 60.259766 C 89.267684 60.228775 89.006529 60.206771 88.744141 60.191406 z "></path>
				<path id="path3213" style="fill:#000000;" d="M 86.171875 60.285156 C 85.927837 60.317642 85.689455 60.35679 85.455078 60.402344 C 85.1608 60.866276 84.984375 61.411805 84.984375 62 C 84.984375 62.588195 85.1608 63.133724 85.455078 63.597656 C 85.689455 63.64321 85.927837 63.682358 86.171875 63.714844 C 85.748421 63.266549 85.484375 62.665636 85.484375 62 C 85.484375 61.334364 85.748421 60.733451 86.171875 60.285156 z M 89.845703 60.306641 C 90.257945 60.752802 90.515625 61.344328 90.515625 62 C 90.515625 62.655672 90.257945 63.247198 89.845703 63.693359 C 90.087016 63.658188 90.325247 63.617772 90.560547 63.568359 C 90.844021 63.110404 91.015625 62.576378 91.015625 62 C 91.015625 61.423622 90.844021 60.889596 90.560547 60.431641 C 90.325247 60.382228 90.087016 60.341812 89.845703 60.306641 z "></path>
				<path id="path4286" class="m" style="fill:#32cd32;" d="M 112.375 60.166016 C 111.50874 60.145752 110.62618 60.210906 109.78125 60.361328 A 2.7657514 2.755207 0 0 0 109.23438 62 A 2.7657514 2.755207 0 0 0 109.78125 63.638672 C 111.23571 63.897608 112.8002 63.891664 114.20117 63.662109 A 2.7657514 2.755207 0 0 0 114.76562 62 A 2.7657514 2.755207 0 0 0 114.20117 60.337891 C 113.61406 60.241689 112.99992 60.180634 112.375 60.166016 z "></path>
				<path id="path4288" class="s" style="opacity:0.75;fill:#1e7b1e;" d="M 112.05273 60.169922 C 112.00849 60.169919 111.96421 60.171451 111.91992 60.171875 L 111.83203 60.931641 L 111.38477 60.183594 C 111.35409 60.185094 111.32363 60.187743 111.29297 60.189453 L 111.56055 61.0625 L 110.75781 60.230469 C 110.752 60.23103 110.74604 60.229899 110.74023 60.230469 L 111.1543 61.109375 L 110.20312 60.814453 L 111.04688 61.527344 L 109.67188 61.365234 L 110.80469 61.912109 L 109.74023 62.222656 L 110.95312 62.224609 L 109.77148 62.869141 L 111.09375 62.544922 L 110.24219 63.417969 L 111.22656 62.900391 L 111.01367 63.791016 C 111.06319 63.794824 111.11252 63.799481 111.16211 63.802734 L 111.64258 62.990234 L 111.65625 63.828125 C 111.69993 63.829384 111.74345 63.827284 111.78711 63.828125 L 111.93164 63.267578 L 112.125 63.832031 C 112.18092 63.831734 112.23716 63.834959 112.29297 63.833984 L 112.24805 63.015625 L 112.75781 63.8125 C 112.78978 63.810856 112.82162 63.808506 112.85352 63.806641 L 112.60547 62.900391 L 113.7168 63.701172 L 112.98242 62.703125 L 114.03711 62.945312 L 112.96289 62.375 L 114.45898 62.568359 L 113.24609 62.091797 L 114.09766 61.84375 L 113.03906 61.744141 L 114.17773 61.072266 L 113.0332 61.298828 L 113.58398 60.492188 L 112.71289 61.173828 L 113.33789 60.226562 C 113.31146 60.224061 113.28627 60.219145 113.25977 60.216797 L 113.25781 60.216797 L 112.45508 61.027344 L 112.62695 60.179688 C 112.58643 60.177992 112.54647 60.175167 112.50586 60.173828 L 112.1582 60.810547 L 112.05273 60.169922 z "></path>
				<path id="path4290" class="s" style="fill:#1e7b1e;" d="m 111.01223,60.648857 0.25933,0.572034 -0.67255,-0.212278 0.51049,0.542074 -0.85814,-0.01965 0.70718,0.368044 -0.77159,0.251448 0.87726,0.03982 -0.77128,0.471249 0.88429,-0.176066 -0.53046,0.637863 0.67463,-0.349379 -0.22325,1.020316 0.56401,-0.910689 0.0572,1.002437 0.20306,-0.838563 0.30357,0.917955 -0.01,-1.06597 0.52864,0.757308 -0.21291,-0.86779 0.89172,0.612915 -0.5666,-0.791418 0.78705,0.19784 -0.74728,-0.468514 1.13624,0.113 -0.9709,-0.372313 0.70262,-0.204537 -0.82539,-0.119342 0.84971,-0.521717 -0.87885,0.144941 0.40017,-0.589342 -0.72929,0.513845 0.53656,-0.853994 -0.73357,0.661109 0.13883,-0.860361 -0.39333,0.726459 -0.15018,-0.741878 -0.14372,0.77894 -0.4168,-0.627333 0.16776,0.719763 z"></path>
				<path id="path4292" style="opacity:0.5;fill:#000000;" d="m 111.20598,60.866974 0.15048,0.429216 -0.44908,-0.08991 0.27562,0.348889 -0.5739,0.06737 0.40807,0.268452 -0.36457,0.182098 0.4989,0.0875 -0.43413,0.327611 0.52881,-0.05296 -0.24252,0.401682 0.35577,-0.118933 -0.0533,0.531663 0.35616,-0.443763 0.092,0.552503 0.15568,-0.373792 0.20657,0.382261 0.069,-0.550855 0.373,0.416862 -0.0997,-0.53765 0.53429,0.311142 -0.22868,-0.424576 0.41003,0.02738 -0.38858,-0.31863 0.64566,0.0098 -0.4792,-0.222329 0.39192,-0.17623 -0.4998,-0.135076 0.44031,-0.347306 -0.411,-0.02599 0.10416,-0.283508 -0.47114,0.252515 0.26231,-0.519588 -0.45018,0.370109 0.0676,-0.584046 -0.27051,0.503862 -0.14231,-0.546586 -0.12059,0.52314 -0.29659,-0.413677 0.0693,0.468444 z"></path>
				<ellipse id="ellipse4298" style="fill:#000000;" cx="112" cy="62" rx="1.1853235" ry="1.1808026"></ellipse>
				<path id="path4300" class="s" style="opacity:0.5;fill:#1e7b1e;" d="M 112.375 60.166016 C 111.48502 60.145197 110.57682 60.211516 109.71094 60.371094 C 109.11811 61.242238 108.88616 62.475628 109.86914 63.652344 C 110.00144 63.674871 110.13568 63.692723 110.26953 63.710938 C 109.92752 61.852092 110.63789 61.010907 111.63281 60.673828 C 112.70492 60.310599 114.43119 61.566384 114.64648 63.017578 C 114.90071 61.815925 114.68005 60.947809 114.23242 60.34375 C 113.63577 60.244365 113.01122 60.180898 112.375 60.166016 z "></path>
				<path id="path4302" class="s" style="fill:#1e7b1e;" d="M 112.375 60.166016 C 112.2337 60.16271 112.09117 60.168866 111.94922 60.169922 C 113.16722 60.123236 114.12082 60.820016 114.8418 62.226562 C 114.79666 61.411761 114.54684 60.794179 114.1875 60.333984 C 113.60465 60.239186 112.99489 60.180516 112.375 60.166016 z M 111.92383 60.171875 C 111.19463 60.178648 110.4611 60.237614 109.75391 60.365234 C 109.13481 61.215567 108.92358 62.425795 109.80469 63.642578 C 109.84335 63.64938 109.88306 63.653727 109.92188 63.660156 C 109.46687 61.751625 110.33785 60.455644 111.38867 60.238281 C 111.57219 60.20032 111.751 60.179961 111.92383 60.171875 z "></path>
				<path id="ellipse4304" style="fill:#e6e6e6;" d="M 112.56055 60.175781 A 0.54781848 0.53260964 0 0 0 112.56055 60.195312 A 0.54781848 0.53260964 0 0 0 113.10742 60.728516 A 0.54781848 0.53260964 0 0 0 113.65039 60.263672 C 113.29292 60.221136 112.9298 60.189434 112.56055 60.175781 z "></path>
				<path id="ellipse4306" style="fill:#ffffff;" d="M 112.74414 60.1875 A 0.39510778 0.38970125 0 0 0 112.73633 60.263672 A 0.39510778 0.38970125 0 0 0 113.13086 60.654297 A 0.39510778 0.38970125 0 0 0 113.52734 60.263672 A 0.39510778 0.38970125 0 0 0 113.52539 60.25 C 113.26794 60.221888 113.00775 60.200797 112.74414 60.1875 z "></path>
				<path id="ellipse4308" style="fill:#000000;" d="M 113.82812 60.285156 C 114.25158 60.733451 114.51562 61.334363 114.51562 62 C 114.51562 62.665637 114.25158 63.266549 113.82812 63.714844 C 114.07216 63.682358 114.31055 63.64321 114.54492 63.597656 C 114.8392 63.133724 115.01562 62.588195 115.01562 62 C 115.01562 61.411805 114.8392 60.866276 114.54492 60.402344 C 114.31052 60.356785 114.07219 60.317644 113.82812 60.285156 z M 110.1543 60.306641 C 109.91298 60.341812 109.67475 60.382228 109.43945 60.431641 C 109.15598 60.889596 108.98438 61.423622 108.98438 62 C 108.98438 62.576378 109.15598 63.110404 109.43945 63.568359 C 109.67475 63.617772 109.91298 63.658188 110.1543 63.693359 C 109.74206 63.247198 109.48438 62.655672 109.48438 62 C 109.48438 61.344328 109.74206 60.752802 110.1543 60.306641 z "></path>
				<path id="path4267" style="fill:#000000;" d="m 82,62 c 3,-2.222223 9,-2.222223 12,0 -2,-2.666667 -10,-2.666667 -12,0 z"></path>
				<path id="path3509" style="fill:#000000;" d="m 82,62 c 2,2.666667 10,2.666667 12,0 -3.011712,2.608106 -10,2.163661 -12,0 z"></path>
				<path id="path4267-5" style="fill:#000000;" d="m 118,62 c -3,-2.222222 -9,-2.222222 -12,0 2,-2.666666 10,-2.666666 12,0 z"></path>
				<path id="path3509-6" style="fill:#000000;" d="m 106,62 c 2,2.666667 10,2.666667 12,0 -2.01171,2.163661 -9,2.608106 -12,0 z"></path>
				<path id="path4246-3" style="fill:#000000;stroke:#000000;stroke-width:0.09999999;stroke-linecap:round;stroke-linejoin:round;" d="m 82,61.999999 c -1.24918,-0.276183 -3.23174,-0.723126 -4.00192,-1.352198 1.59739,0.4198 2.6125,0.588308 4.41601,0.572605 -0.89779,-0.178968 -2.402789,-0.748752 -2.814879,-0.989685 1.645593,0.39036 3.079897,0.517824 4.290179,0.398736 -0.684714,-0.106162 -1.862196,-0.285793 -2.517584,-0.747125 1.411774,0.34827 2.893595,0.418179 3.417275,0.39018 -0.38307,-0.08501 -0.993938,-0.340334 -1.203108,-0.493723 0.79009,0.19672 2.338983,0.276208 3.347773,0.318133 C 84.149072,60.568783 83,61.056276 82,61.999999 Z"></path>
				<path id="path3472" style="fill:#000000;stroke:#000000;stroke-width:0.09999999;stroke-linecap:round;stroke-linejoin:round;" d="m 118,61.999999 c 1.24918,-0.276183 3.23174,-0.723126 4.00192,-1.352198 -1.59739,0.4198 -2.47999,0.689913 -4.2835,0.67421 0.89779,-0.178968 2.18746,-0.733121 2.59955,-0.974054 -1.6456,0.390359 -2.81488,0.455298 -4.02516,0.33621 0.68471,-0.106162 1.49779,-0.356134 2.15318,-0.817467 -1.41177,0.34827 -2.71139,0.433811 -3.23507,0.405812 0.38307,-0.08501 0.61298,-0.301255 0.82215,-0.454644 -0.79009,0.19672 -1.95803,0.237129 -2.96682,0.279054 C 115.85093,60.568783 117,61.056276 118,61.999999 Z"></path>
			</g>
		</g>
	</g>
</svg>