<svg id="svg-ey-000" viewBox="0 0 200 200" xmlns="http://www.w3.org/2000/svg" xmlns:xlink="http://www.w3.org/1999/xlink" version="1.1">
	<g class="dsgn-0 cat-layer cat-no clip-ha"><g class="des-layer des-loaded"><path id="path3846" style="fill:#000000;" d="m 96,73 c -0.508706,-0.285811 -0.643456,-0.445286 -0.669333,-0.996564 -0.04369,-0.930714 0.501456,-1.968363 0.890299,-2.309979 -0.739316,0.236131 -1.321632,1.457346 -1.324699,2.200781 C 94.893467,72.568024 95.349748,73.016858 96,73 Z"></path><path id="path3854" style="fill:#000000;" d="M 96.125 71.978516 C 95.925616 72.011994 95.780352 72.138626 95.841797 72.345703 C 96.031557 72.985224 96.636623 72.25281 97.007812 73.050781 C 97.303985 73.687487 97.958333 74.25 100 74.25 C 102.04167 74.25 102.69602 73.687487 102.99219 73.050781 C 103.36338 72.25281 103.96844 72.985224 104.1582 72.345703 C 104.28108 71.931549 103.57803 71.834137 103.26562 72.175781 C 103.09583 72.361466 103.0678 72.619891 102.9043 72.837891 C 102.5773 73.273891 101.95833 73.75 100 73.75 C 98.041667 73.75 97.422703 73.273891 97.095703 72.837891 C 96.932203 72.619891 96.904167 72.361466 96.734375 72.175781 C 96.578174 72.004959 96.324384 71.945037 96.125 71.978516 z "></path><path id="path3856" class="ss" style="fill:#bfbfbf;" d="m 97,69 c 1,-3 2,-5 3,-5 1,0 2,2 3,5 -3,-2 -3,-2 -6,0 z"></path><path id="path4267" style="fill:#000000;" d="m 104,73 c 0.50871,-0.285811 0.64346,-0.445286 0.66933,-0.996564 0.0437,-0.930714 -0.50145,-1.968363 -0.8903,-2.309979 0.73932,0.236131 1.32164,1.457346 1.3247,2.200781 C 105.10653,72.568024 104.65025,73.016858 104,73 Z"></path><path id="path4269" style="opacity:0.25;fill:#000000;" d="m 97,69 c 1,-3 2,-5 3,-5 1,0 2,2 3,5 -3,-2 -3,-2 -6,0 z"></path></g></g>
</svg>