<svg id="svg-ey-000" viewBox="0 0 200 200" xmlns="http://www.w3.org/2000/svg" xmlns:xlink="http://www.w3.org/1999/xlink" version="1.1">
	<g class="dsgn-0 cat-layer cat-ey clip-ha"><g class="des-layer des-loaded"><path id="path4269" class="ss" style="fill:#bfbfbf;" d="m 86.133695,57.270832 a 1.0001,1.0001 0 0 0 -0.914062,1.457031 l 1.603515,3.232422 -3.11914,1.41211 a 1.0001,1.0001 0 1 0 0.824218,1.822265 l 3.185547,-1.441406 1.53711,3.099609 a 1.0005586,1.0005586 0 1 0 1.792968,-0.888671 l -1.505859,-3.03711 3.552734,-1.607422 a 1.0001,1.0001 0 0 0 -0.36914,-1.917968 1.0001,1.0001 0 0 0 -0.455078,0.0957 l -3.619141,1.636718 -1.634766,-3.294921 a 1.0001,1.0001 0 0 0 -0.878906,-0.56836 z m 28.271485,0.460938 a 1.0001,1.0001 0 0 0 -0.88867,0.498047 l -1.75781,2.945312 -3.41211,-2.041016 a 1.0001,1.0001 0 0 0 -0.57227,-0.148437 1.0001,1.0001 0 0 0 -0.45312,1.865234 l 3.41211,2.041016 -1.72266,2.886719 a 1.0006905,1.0006905 0 1 0 1.71875,1.02539 l 1.7207,-2.884765 2.89844,1.734375 a 1.0003549,1.0003549 0 0 0 1.02735,-1.716797 l -2.90039,-1.734375 1.75781,-2.947266 a 1.0001,1.0001 0 0 0 -0.82813,-1.523437 z"></path><path id="path4589-9" style="fill:#000000;" d="M 86.017578 56.519531 A 1.0001 1.0001 0 0 0 85.103516 57.976562 L 86.707031 61.208984 L 83.587891 62.621094 A 1.0001 1.0001 0 1 0 84.412109 64.443359 L 87.597656 63.001953 L 89.134766 66.101562 A 1.0005586 1.0005586 0 1 0 90.927734 65.212891 L 89.421875 62.175781 L 92.974609 60.568359 A 1.0001 1.0001 0 0 0 92.605469 58.650391 A 1.0001 1.0001 0 0 0 92.150391 58.746094 L 88.53125 60.382812 L 86.896484 57.087891 A 1.0001 1.0001 0 0 0 86.017578 56.519531 z M 114.28906 56.980469 A 1.0001 1.0001 0 0 0 113.40039 57.478516 L 111.64258 60.423828 L 108.23047 58.382812 A 1.0001 1.0001 0 0 0 107.6582 58.234375 A 1.0001 1.0001 0 0 0 107.20508 60.099609 L 110.61719 62.140625 L 108.89453 65.027344 A 1.0006905 1.0006905 0 1 0 110.61328 66.052734 L 112.33398 63.167969 L 115.23242 64.902344 A 1.0003549 1.0003549 0 1 0 116.25977 63.185547 L 113.35938 61.451172 L 115.11719 58.503906 A 1.0001 1.0001 0 0 0 114.28906 56.980469 z "></path></g></g>
</svg>