<svg id="svg-ey-000" viewBox="0 0 200 200" xmlns="http://www.w3.org/2000/svg" xmlns:xlink="http://www.w3.org/1999/xlink" version="1.1">
	<g class="dsgn-0 cat-layer cat-fc clip-ha"><g class="des-layer des-loaded">
<path id="path3307-8-2-7-7" class="ms" style="fill:#ffca99;" d="m 124,65 c 1.133,-9.137546 8.9197,-8.444159 9,-3 -0.0804,5.723948 -0.33504,9.93887 -6,14 -4,4 -3,-4 -3,-11 z"></path><path id="path4236" class="ss" style="fill:#ffbd80;" d="M 130.32727,65.025421 C 129.74768,56.11004 125.17565,63.694888 125.17565,67.91301 128,68 128.06064,73 126,73 l -1,0 -0.0492,-11.9375 c 1.91817,-3.702467 5.96859,-3.779695 7.20819,-1.614557 1.61193,2.815454 0.5249,10.383026 -2.15336,13.817222 0.52121,-3.161423 0.45414,-6.201516 0.32162,-8.239744 z"></path><path id="path4774-3-9-5-5" class="outline" style="fill:none;stroke:#000000;stroke-width:0.40000001;stroke-linecap:round;stroke-linejoin:round;" d="m 128.31582,65.925452 c 0,-4.812648 -2.06065,-2.887589 -3.09097,1.925058"></path><path id="path4772-5-9-8-76" class="outline" style="fill:none;stroke:#000000;stroke-width:0.40000001;stroke-linecap:round;stroke-linejoin:round;" d="m 130.37646,64.962921 c -0.6474,-8.91071 -5.15161,-1.330533 -5.15161,2.887589 C 128,68 128.06065,73 126,73"></path><path id="path3307-8-2-89" class="ms" style="fill:#ffca99;" d="m 76,65 c -1.132993,-9.137542 -8.919707,-8.444157 -9,-3 0.0803,5.723949 0.335034,9.938871 6,14 4,4 3,-5 3,-11 z"></path><path id="path4232" class="ss" style="fill:#ffbd80;" d="M 69.623534,64.962921 C 70.203119,56.04754 74.77515,63.632388 74.77515,67.85051 72,68 71.939354,73 74,73 l 1,0 0,-12 c -1.918169,-3.702467 -5.968592,-3.779695 -7.208193,-1.614557 -1.611925,2.815454 -0.554139,10.177899 2.124119,13.612095 -0.521216,-3.161423 -0.424896,-5.996389 -0.292392,-8.034617 z"></path><path id="path4774-3-9-4" class="outline" style="fill:none;stroke:#000000;stroke-width:0.40000001;stroke-linecap:round;stroke-linejoin:round;" d="m 71.68418,65.925452 c 0,-4.812648 2.060647,-2.887589 3.09097,1.925058"></path><path id="path4772-5-9-6" class="outline" style="fill:none;stroke:#000000;stroke-width:0.40000001;stroke-linecap:round;stroke-linejoin:round;" d="M 69.623534,64.962921 C 70.270939,56.052208 74.77515,63.632388 74.77515,67.85051 72,68 71.939354,73 74,73"></path><path id="path3842-8" class="outline" style="fill:none;stroke:#000000;" d="m 76,65 c -1.132993,-9.137542 -8.919707,-8.444157 -9,-3 0.0803,5.723949 0.335034,9.938871 6,14 5,4 3,-5 3,-11 z"></path><path id="path3844-1" class="outline" style="fill:none;stroke:#000000;" d="m 124,65 c 1.133,-9.137546 8.9197,-8.444159 9,-3 -0.0804,5.723948 -0.33504,9.93887 -6,14 -4,4 -3,-5 -3,-11 z"></path>
<path id="path2470-3-5-7" class="ms" style="fill:#ffca99;" d="m 75,80 0,-33 c 0,-20 15.01,-25 25,-25 9.99,0 25,5 25,25 l 0,33 c 0,5 -15,12 -25,12 C 90,92 75,85 75,80 Z"></path><path id="path3840-63" class="outline" style="fill:none;stroke:#000000;stroke-linecap:round;stroke-linejoin:round;" d="m 75,80 0,-33 c 0,-20 15.01,-25 25,-25 9.99,0 25,5 25,25 l 0,33 c 0,5 -15,12 -25,12 C 90,92 75,85 75,80 Z"></path><path id="path4259" class="hs" style="opacity:0.5;fill:#ffd7b3;" d="M 100,90 C 85,90 77,85 77,70 c 0,-5 3.5,-4 3.5,-11.5 0,-2.5 0,-1 -2.5,-3.5 2.5,-12.5 1.5,-13.5 6.5,-21 2.5,-5 10.5,-7 15.5,-7 5,0 13,2 15.5,7 5,7.5 4,8.5 6.5,21 -2.5,2.5 -2.5,1 -2.5,3.5 0,7.5 3.5,6.5 3.5,11.5 0,15 -8,20 -23,20 z"></path>
<path id="path4952" class="ms" style="opacity:0.5;fill:#ffca99;" d="m 90.8125,36.1875 c -2.7353,0.861527 -13.21699,1.666885 -12.21875,6 2.96111,2.741339 10.81881,-3.204099 14.4375,-2.09375 3.61438,-0.507009 6.74688,3.606662 10.03125,0.65625 4.69984,-2.113268 13.5007,0.416339 17.09375,1.78125 0.82122,-1.301018 0.5834,-2.277555 -0.17471,-3.013182 C 118.56976,38.148153 113.1349,36.801201 111.59375,36.5625 107.48798,35.302711 103.11284,36.58203 100,37.90625 97.31,36.657954 93.76884,35.928242 90.8125,36.1875 Z m 0.65625,4.53125 c -3.69446,0.740045 -11.77152,1.30487 -13.8125,4.90625 0.80766,4.701841 8.48863,-0.7815 11.25,-0.5625 3.98105,-1.139538 7.84884,0.188156 11.25,1.9375 5.39501,-3.941761 14.37285,-1.555654 20.0625,0.34375 3.3215,-0.66532 1.1068,-3.743704 -1.625,-4.25 -5.29521,-1.863315 -13.60819,-3.410581 -18.625,-0.46875 -2.54941,-1.508579 -5.55079,-2.101402 -8.5,-1.90625 z m 25.875,6.1875 c -5.62661,-1.969971 -12.31223,-2.107216 -17.4375,0.78125 -6.50819,-3.88291 -17.98188,-0.564922 -22.28125,1.46875 -0.56786,1.404558 -0.78858,2.695893 -1e-5,3.093761 1.32413,0.668077 3.60112,-0.861345 6.28126,-1.531261 5.20024,-1.809788 11.48826,-2.390602 15.9375,1.3125 2.96268,-2.787059 6.65487,-3.45535 10.90625,-3.0625 3.52121,0.325378 9.02962,3.602993 11.375,2.84375 0.40797,-0.874604 0.20494,-2.247377 -0.15089,-2.753765 -0.82955,-1.180536 -3.41893,-1.652444 -4.63036,-2.152485 z"></path><path id="path4156" class="ms" style="fill:#ffca99;" d="m 91.96875,37.125 c -2.90446,0.128787 -9.39405,1.595118 -12.125,3.15625 -0.51777,0.207107 -0.76961,0.794733 -0.5625,1.3125 0.20711,0.517767 0.79473,0.769607 1.3125,0.5625 8.28809,-3.502736 14.29296,-4.080473 18.90625,-1.3125 0.30941,0.178612 0.69059,0.178612 1,0 4.61329,-2.767973 13.64941,-1.627736 18.9375,1.25 0.51777,0.207107 1.10539,-0.04473 1.3125,-0.5625 0.20711,-0.517767 -0.0447,-1.105393 -0.5625,-1.3125 C 114.65906,36.938625 105.2809,36.078024 100,38.96875 97.43998,37.567415 94.70149,37.003827 91.96875,37.125 Z M 90.9375,41.75 c -3.40249,0.26173 -9.74847,2.318137 -12.3125,3.34375 -0.51777,0.207107 -0.76961,0.794733 -0.5625,1.3125 0.20711,0.517767 0.79473,0.769607 1.3125,0.5625 2.43597,-0.974387 8.58999,-2.98048 11.6875,-3.21875 3.09751,-0.23827 6.07914,0.244561 8.3125,2.03125 0.36535,0.292463 0.88465,0.292463 1.25,0 2.23336,-1.786689 5.62124,-2.51952 8.71875,-2.28125 3.09751,0.23827 8.81403,2.463113 11.25,3.4375 0.51777,0.207107 1.10539,-0.04473 1.3125,-0.5625 0.20711,-0.517767 -0.0447,-1.105393 -0.5625,-1.3125 C 118.77972,44.036887 112.90249,41.76173 109.5,41.5 106.33652,41.256656 102.66819,42.003578 100,43.84375 97.33181,42.003578 94.10098,41.506656 90.9375,41.75 Z m 1.90625,4.53125 c -0.97683,-0.03554 -1.96169,-0.0038 -2.9375,0.09375 -3.90325,0.390325 -8.88414,2.009906 -11.4375,3.03125 -0.51777,0.207107 -0.76961,0.794733 -0.5625,1.3125 0.20711,0.517767 0.79473,0.769607 1.3125,0.5625 2.44664,-0.978656 7.27825,-2.546575 10.875,-2.90625 3.59675,-0.359675 6.99391,0.150163 9.1875,2.34375 0.18841,0.194738 0.44778,0.304688 0.71875,0.304688 0.27097,0 0.53034,-0.10995 0.71875,-0.304688 2.19359,-2.193587 5.59075,-2.703425 9.1875,-2.34375 3.59675,0.359675 9.02211,2.146344 11.46875,3.125 0.51777,0.207107 0.94914,-0.32598 1.15625,-0.84375 0.20711,-0.517767 -0.0447,-1.105393 -0.5625,-1.3125 C 119.41539,48.322406 113.997,46.765325 110.09375,46.375 106.49246,46.014871 102.76534,46.482544 100,48.75 97.98396,47.096939 95.47197,46.376871 92.84375,46.28125 Z"></path></g></g>
</svg>