<?xml version="1.0" encoding="UTF-8" standalone="no"?>
<svg xmlns:dc="http://purl.org/dc/elements/1.1/" xmlns:cc="http://creativecommons.org/ns#" xmlns:rdf="http://www.w3.org/1999/02/22-rdf-syntax-ns#" xmlns:svg="http://www.w3.org/2000/svg" xmlns="http://www.w3.org/2000/svg" xmlns:sodipodi="http://sodipodi.sourceforge.net/DTD/sodipodi-0.dtd" xmlns:inkscape="http://www.inkscape.org/namespaces/inkscape" width="768" height="576" viewBox="0 0 203.2 152.4" version="1.1" id="svg8" inkscape:version="1.0.2 (e86c870879, 2021-01-15)" sodipodi:docname="moldeComRosto.svg">
     <defs id="defs2">
          <style type="text/css" id="style111">
               <![CDATA[
    .str0 {stroke:aqua;stroke-width:0.2}
    .fil0 {fill:none}
    .fil1 {fill:black}
   ]]>
          </style>
          <style type="text/css" id="style111-4">
               <![CDATA[
    .str0 {stroke:aqua;stroke-width:0.2}
    .fil0 {fill:none}
    .fil1 {fill:black}
   ]]>
          </style>
          <style type="text/css" id="style111-0">
               <![CDATA[
    .str0 {stroke:aqua;stroke-width:0.2}
    .fil0 {fill:none}
    .fil1 {fill:black}
   ]]>
          </style>
          <style type="text/css" id="style111-9">
               <![CDATA[
    .str0 {stroke:aqua;stroke-width:0.2}
    .fil0 {fill:none}
    .fil1 {fill:black}
   ]]>
          </style>
     </defs>
     <sodipodi:namedview id="base" pagecolor="#ffffff" bordercolor="#666666" borderopacity="1.0" inkscape:pageopacity="0.0" inkscape:pageshadow="2" inkscape:zoom="0.49497475" inkscape:cx="467.78386" inkscape:cy="520.66862" inkscape:document-units="mm" inkscape:current-layer="layer1" inkscape:document-rotation="0" showgrid="false" units="px" inkscape:window-width="1350" inkscape:window-height="728" inkscape:window-x="0" inkscape:window-y="0" inkscape:window-maximized="0" />
     <metadata id="metadata5">
          <rdf:RDF>
               <cc:Work rdf:about="">
                    <dc:format>image/svg+xml</dc:format>
                    <dc:type rdf:resource="http://purl.org/dc/dcmitype/StillImage" />
                    <dc:title></dc:title>
               </cc:Work>
          </rdf:RDF>
     </metadata>
     <g inkscape:label="Layer 1" inkscape:groupmode="layer" id="layer1">
          <g style="clip-rule:evenodd;fill-rule:evenodd;image-rendering:optimizeQuality;shape-rendering:geometricPrecision;text-rendering:geometricPrecision" id="g63" transform="matrix(2.8249833,0,0,2.8249833,-468.44042,-172.64036)">
               <g id="layer1-54" inkscape:label="Molde" style="display:inline">
                    <g class="dsgn-0 cat-layer cat-no clip-ha" id="g1137" transform="matrix(0.95409766,0,0,1.0858761,105.72373,15.549885)">
                         <g class="des-layer des-loaded" id="g1135">
                              <path id="path3846" style="fill:#000000" d="m 96,73 c -0.508706,-0.285811 -0.643456,-0.445286 -0.669333,-0.996564 -0.04369,-0.930714 0.501456,-1.968363 0.890299,-2.309979 -0.739316,0.236131 -1.321632,1.457346 -1.324699,2.200781 C 94.893467,72.568024 95.349748,73.016858 96,73 Z" />
                              <path id="path3854" style="fill:#000000" d="m 96.125,71.978516 c -0.199384,0.03348 -0.344648,0.16011 -0.283203,0.367187 0.18976,0.639521 0.794826,-0.09289 1.166015,0.705078 C 97.303985,73.687487 97.958333,74.25 100,74.25 c 2.04167,0 2.69602,-0.562513 2.99219,-1.199219 0.37119,-0.797971 0.97625,-0.06556 1.16601,-0.705078 0.12288,-0.414154 -0.58017,-0.511566 -0.89258,-0.169922 -0.16979,0.185685 -0.19782,0.44411 -0.36132,0.66211 -0.327,0.436 -0.94597,0.912109 -2.9043,0.912109 -1.958333,0 -2.577297,-0.476109 -2.904297,-0.912109 -0.1635,-0.218 -0.191536,-0.476425 -0.361328,-0.66211 C 96.578174,72.004959 96.324384,71.945037 96.125,71.978516 Z" />
                              <path id="path3856" class="ss" style="fill:#bfbfbf" d="m 97,69 c 1,-3 2,-5 3,-5 1,0 2,2 3,5 -3,-2 -3,-2 -6,0 z" />
                              <path id="path4267" style="fill:#000000" d="m 104,73 c 0.50871,-0.285811 0.64346,-0.445286 0.66933,-0.996564 0.0437,-0.930714 -0.50145,-1.968363 -0.8903,-2.309979 0.73932,0.236131 1.32164,1.457346 1.3247,2.200781 C 105.10653,72.568024 104.65025,73.016858 104,73 Z" />
                              <path id="path4269" style="opacity:0.25;fill:#000000" d="m 97,69 c 1,-3 2,-5 3,-5 1,0 2,2 3,5 -3,-2 -3,-2 -6,0 z" />
                         </g>
                    </g>
               </g>
          </g>
     </g>
</svg>
