<?xml version="1.0" encoding="UTF-8" standalone="no"?>
<svg xmlns:dc="http://purl.org/dc/elements/1.1/" xmlns:cc="http://creativecommons.org/ns#" xmlns:rdf="http://www.w3.org/1999/02/22-rdf-syntax-ns#" xmlns:svg="http://www.w3.org/2000/svg" xmlns="http://www.w3.org/2000/svg" xmlns:sodipodi="http://sodipodi.sourceforge.net/DTD/sodipodi-0.dtd" xmlns:inkscape="http://www.inkscape.org/namespaces/inkscape" xml:space="preserve" width="297mm" height="210mm" style="shape-rendering:geometricPrecision; text-rendering:geometricPrecision; image-rendering:optimizeQuality; fill-rule:evenodd; clip-rule:evenodd" viewBox="0 0 297 210" version="1.1" id="svg206" sodipodi:docname="moldeComRosto.svg" inkscape:version="1.0.2 (e86c870879, 2021-01-15)">
  <title id="title1035">Molde com Rosto</title>
  <metadata id="metadata210">
    <rdf:RDF>
      <cc:Work rdf:about="">
        <dc:format>image/svg+xml</dc:format>
        <dc:type rdf:resource="http://purl.org/dc/dcmitype/StillImage" />
        <dc:title>Molde com Rosto</dc:title>
      </cc:Work>
    </rdf:RDF>
  </metadata>
  <sodipodi:namedview pagecolor="#ffffff" bordercolor="#666666" borderopacity="1" objecttolerance="10" gridtolerance="10" guidetolerance="10" inkscape:pageopacity="0" inkscape:pageshadow="2" inkscape:window-width="1366" inkscape:window-height="705" id="namedview208" showgrid="false" inkscape:zoom="2.7113492" inkscape:cx="744.65391" inkscape:cy="330.79186" inkscape:window-x="-8" inkscape:window-y="-8" inkscape:window-maximized="1" inkscape:current-layer="layer1" />
  <defs id="defs113">
    <style type="text/css" id="style111">
      <![CDATA[
    .str0 {stroke:aqua;stroke-width:0.2}
    .fil0 {fill:none}
    .fil1 {fill:black}
   ]]>
    </style>
  </defs>
  <g inkscape:groupmode="layer" id="layer1" inkscape:label="Molde" style="display:inline">
    <g class="dsgn-0 cat-layer cat-mo clip-ha" id="g1061" transform="matrix(0.93039093,0,0,0.88177258,107.77686,26.256364)">
      <g class="des-layer des-loaded" id="g1059">
        <path id="path3976" class="m" style="fill:#990000;" d="m 96.47943,83.171257 c 0.58124,-0.703267 1.547809,-1.339003 1.951121,-1.4891 0.632822,-0.235511 1.255764,0.655408 1.590569,0.638192 0.28225,0.01528 0.85037,-1.060922 1.88038,-0.320562 0.32268,0.23194 1.25287,0.593653 1.62212,1.212926 -1.07025,1.233823 -2.38974,2.111021 -3.537776,2.111021 -1.148041,0 -2.231036,-0.115585 -3.506414,-2.152477 z"></path>
        <path id="path3455" style="opacity:0.25;fill:#000000;" d="m 100,85.875001 c -0.825,0 -2.241319,0.800009 -2.999406,2.065347 1.358462,-0.81531 1.793295,-1.08466 2.975982,-1.065347 0.850674,0.01389 1.698204,0.25035 2.997734,1.098474 C 102.05225,86.544165 100.825,85.875001 100,85.875001 Z"></path>
        <path id="path4245" class="ss" style="fill:#bfbfbf;" d="m 91.152719,82.729125 c 0.05918,-0.434235 0.921971,-0.826644 1.803523,-1.142894 -0.862404,0.472842 -1.08394,0.652516 -1.156233,1.276274 -0.05197,0.448654 0.06862,0.692233 0.711152,1.540344 -0.82966,-0.628579 -1.417675,-1.239502 -1.358447,-1.673727 z"></path>
        <path id="path4247" class="ss" style="fill:#bfbfbf;" d="m 109.07718,82.897955 c -0.0119,-0.400234 -0.93355,-0.758529 -1.88581,-1.046526 0.91106,0.432451 1.1378,0.597214 1.14043,1.1723 0.002,0.413561 -0.16433,0.638714 -0.99413,1.423586 1.01278,-0.583193 1.7514,-1.149093 1.73939,-1.549316 z"></path>
        <path id="path962" style="fill:#000000;" d="m 99.86818,82.416228 c 0.03281,0.01309 0.07243,0.02641 0.116963,0.03512 0.292737,0.02907 0.384717,-0.152496 0.703577,-0.32329 0,0 0,0 0,0 0.28405,-0.137548 0.62643,-0.207458 0.93463,-0.0083 0.48788,0.310478 0.99417,0.459201 1.33991,0.674173 0.34574,0.214971 0.54815,0.472457 0.56893,0.419443 0.0261,-0.06685 -0.15947,-0.408941 -0.51475,-0.700084 -0.35156,-0.288086 -0.86438,-0.480431 -1.31526,-0.77668 -0.37668,-0.24302 -0.76691,-0.170883 -1.07527,-0.01478 0,0 0,0 0,0 -0.3157,0.146196 -0.50401,0.343265 -0.61897,0.311342 -0.02515,-0.0032 -0.04814,-0.01021 -0.06692,-0.01734 -0.10986,-0.04158 -0.253512,-0.174118 -0.454702,-0.273815 -0.277247,-0.14086 -0.613066,-0.229224 -0.965769,-0.146637 -1.111598,0.269467 -2.072787,1.506474 -2.047067,1.57237 0.04819,0.123488 1.034866,-0.970663 2.07415,-1.171688 0,0 10e-7,0 10e-7,0 0.306164,-0.06185 0.608521,0.02026 0.87315,0.154198 0.146511,0.07649 0.297129,0.205927 0.447465,0.265926 z"></path>
        <path id="path960" style="fill:#000000;" d="m 100.0903,84.996585 c -0.0474,0.003 -0.10588,0.0052 -0.172857,0.005 -0.536805,-0.0016 -1.351134,-0.0973 -2.151087,-0.61441 -0.738259,-0.477233 -1.255393,-1.282364 -1.290495,-1.203971 -0.04337,0.09684 0.486615,1.034423 1.262278,1.571793 0.838204,0.580696 1.688278,0.646505 2.178441,0.645385 0.06314,-1.71e-4 0.11696,-0.0021 0.15645,-0.0037 0.57376,-0.02319 1.31533,-0.23802 2.16096,-0.871418 0.75403,-0.564772 1.33301,-1.27792 1.31061,-1.334643 -0.0342,-0.08655 -0.58729,0.471054 -1.30061,0.961676 -0.80091,0.550861 -1.49973,0.803154 -2.15369,0.844257 z"></path>
        <path id="path956-9" style="fill:#000000;" d="m 100.08405,82.990804 c -0.0607,8.17e-4 -0.130927,0.0016 -0.209809,0.0022 -0.839064,0.0069 -2.339116,0.01198 -3.820101,-0.03351 -1.446819,-0.04978 -2.638925,-0.278502 -2.662544,-0.14351 -0.02862,0.163604 1.238444,0.546017 2.646899,0.640489 1.502267,0.106734 3.127895,0.07811 3.836271,0.07523 0.0662,-2.66e-4 0.123024,-3.77e-4 0.169854,-2.17e-4 0.91129,0.0031 2.44044,-0.03233 3.94136,-0.174686 1.31414,-0.120807 2.43978,-0.425251 2.41721,-0.510557 -0.0358,-0.135065 -1.08349,0.0041 -2.43381,0.05636 -1.63305,0.05659 -2.59016,0.07074 -3.88533,0.08821 z"></path>
      </g>
    </g>
  </g>
</svg>
