<?xml version="1.0" encoding="UTF-8" standalone="no"?>
<svg xmlns:dc="http://purl.org/dc/elements/1.1/" xmlns:cc="http://creativecommons.org/ns#" xmlns:rdf="http://www.w3.org/1999/02/22-rdf-syntax-ns#" xmlns:svg="http://www.w3.org/2000/svg" xmlns="http://www.w3.org/2000/svg" xmlns:sodipodi="http://sodipodi.sourceforge.net/DTD/sodipodi-0.dtd" xmlns:inkscape="http://www.inkscape.org/namespaces/inkscape" xml:space="preserve" width="297mm" height="210mm" style="shape-rendering:geometricPrecision; text-rendering:geometricPrecision; image-rendering:optimizeQuality; fill-rule:evenodd; clip-rule:evenodd" viewBox="0 0 297 210" version="1.1" id="svg206" sodipodi:docname="moldeComRosto.svg" inkscape:version="1.0.2 (e86c870879, 2021-01-15)">
  <title id="title1035">Molde com Rosto</title>
  <metadata id="metadata210">
    <rdf:RDF>
      <cc:Work rdf:about="">
        <dc:format>image/svg+xml</dc:format>
        <dc:type rdf:resource="http://purl.org/dc/dcmitype/StillImage" />
        <dc:title>Molde com Rosto</dc:title>
      </cc:Work>
    </rdf:RDF>
  </metadata>
  <sodipodi:namedview pagecolor="#ffffff" bordercolor="#666666" borderopacity="1" objecttolerance="10" gridtolerance="10" guidetolerance="10" inkscape:pageopacity="0" inkscape:pageshadow="2" inkscape:window-width="1366" inkscape:window-height="705" id="namedview208" showgrid="false" inkscape:zoom="2.7113492" inkscape:cx="744.65391" inkscape:cy="330.79186" inkscape:window-x="-8" inkscape:window-y="-8" inkscape:window-maximized="1" inkscape:current-layer="layer1" />
  <defs id="defs113">
    <style type="text/css" id="style111">
      <![CDATA[
    .str0 {stroke:aqua;stroke-width:0.2}
    .fil0 {fill:none}
    .fil1 {fill:black}
   ]]>
    </style>
  </defs>
  <g inkscape:groupmode="layer" id="layer1" inkscape:label="Molde" style="display:inline">
    <g class="dsgn-0 cat-layer cat-mo clip-ha" id="g1061" transform="matrix(0.93039093,0,0,0.88177258,107.77686,26.256364)">
      <g class="des-layer des-loaded" id="g1059">
        <path id="path3293" style="fill:#000000" d="m 91,80 c 2.062337,3.125337 4.864382,3.989065 9,3.98189 4.17404,-0.0072 7.07243,-0.915636 9,-3.98189 -2.87114,2.423679 -6.98571,2.263974 -9,2.25 -2.071457,-0.01437 -5.902733,0.318972 -9,-2.25 z" />
        <path id="path3309" class="ss" style="fill:#bfbfbf" d="m 100,85.875 c -0.825,0 -3.241319,0.800009 -3.999406,2.065347 1.358462,-0.81531 2.793295,-1.08466 3.975982,-1.065347 0.850674,0.01389 2.698204,0.25035 3.997734,1.098474 C 103.05225,86.544164 100.825,85.875 100,85.875 Z" />
        <path id="path3309-3" class="ss" style="fill:#bfbfbf" d="m 90.070527,79.053579 c -0.341994,0.359479 -0.201695,1.276357 0.01481,2.15155 -0.07068,-0.975192 -0.03858,-1.26808 0.459789,-1.775099 0.358463,-0.364684 0.635739,-0.45378 1.724748,-0.601176 -1.003395,-0.14934 -1.857359,-0.134747 -2.199353,0.224725 z" />
        <path id="path3309-3-6" class="ss" style="fill:#bfbfbf" d="m 110.05952,79.081566 c 0.3753,0.37314 0.22135,1.324861 -0.0162,2.233314 0.0776,-1.012252 0.0424,-1.31627 -0.50456,-1.842557 -0.39338,-0.378543 -0.69766,-0.471025 -1.89273,-0.624021 1.10112,-0.155017 2.03826,-0.139868 2.41356,0.233264 z" />
        <path id="path3455" style="opacity:0.25;fill:#000000" d="m 100,85.875 c -0.825,0 -3.241319,0.800009 -3.999406,2.065347 1.358462,-0.81531 2.793295,-1.08466 3.975982,-1.065347 0.850674,0.01389 2.698204,0.25035 3.997734,1.098474 C 103.05225,86.544164 100.825,85.875 100,85.875 Z" />
      </g>
    </g>
  </g>
</svg>
