<?xml version="1.0" encoding="UTF-8" standalone="no"?>
<svg
   xmlns:dc="http://purl.org/dc/elements/1.1/"
   xmlns:cc="http://creativecommons.org/ns#"
   xmlns:rdf="http://www.w3.org/1999/02/22-rdf-syntax-ns#"
   xmlns:svg="http://www.w3.org/2000/svg"
   xmlns="http://www.w3.org/2000/svg"
   xmlns:sodipodi="http://sodipodi.sourceforge.net/DTD/sodipodi-0.dtd"
   xmlns:inkscape="http://www.inkscape.org/namespaces/inkscape"
   xml:space="preserve"
   width="297mm"
   height="210mm"
   style="shape-rendering:geometricPrecision; text-rendering:geometricPrecision; image-rendering:optimizeQuality; fill-rule:evenodd; clip-rule:evenodd"
   viewBox="0 0 297 210"
   version="1.1"
   id="svg206"
   sodipodi:docname="corpo.svg"
   inkscape:version="1.0.2 (e86c870879, 2021-01-15)"><title
   id="title1035">Camisa</title><metadata
   id="metadata210"><rdf:RDF><cc:Work
       rdf:about=""><dc:format>image/svg+xml</dc:format><dc:type
         rdf:resource="http://purl.org/dc/dcmitype/StillImage" /><dc:title>Camisa</dc:title></cc:Work></rdf:RDF></metadata><sodipodi:namedview
   pagecolor="#ffffff"
   bordercolor="#666666"
   borderopacity="1"
   objecttolerance="10"
   gridtolerance="10"
   guidetolerance="10"
   inkscape:pageopacity="0"
   inkscape:pageshadow="2"
   inkscape:window-width="1366"
   inkscape:window-height="705"
   id="namedview208"
   showgrid="false"
   inkscape:zoom="0.47930335"
   inkscape:cx="627.2867"
   inkscape:cy="294.15909"
   inkscape:window-x="-8"
   inkscape:window-y="-8"
   inkscape:window-maximized="1"
   inkscape:current-layer="layer1"
   inkscape:document-rotation="0" />
 <defs
   id="defs113">
  <style
   type="text/css"
   id="style111">
   <![CDATA[
    .str0 {stroke:aqua;stroke-width:0.2}
    .fil0 {fill:none}
    .fil1 {fill:black}
   ]]>
  </style>
 </defs>
 <g
   inkscape:groupmode="layer"
   id="layer1"
   inkscape:label="Molde"
   style="display:inline">


         <g
   transform="matrix(0.03527778,0,0,-0.03527778,-415.0861,207.96972)"
   fill="#000000"
   stroke="none"
   id="g2294"><path
     d="m 14249.072,2384.5846 c -9.31,-13.1869 -43.439,-55.85 -75.243,-94.6347 -60.503,-72.1396 -68.261,-88.4291 -44.99,-90.7563 6.981,-0.7756 -45.765,-3.8785 -118.681,-6.2054 l -131.869,-3.8785 -2.326,-156.6902 c -0.776,-89.9805 -4.654,-157.4658 -9.309,-157.4658 -3.878,0 -7.757,17.0651 -9.308,38.009 l -2.327,38.7846 -108.597,-62.0554 c -59.728,-34.1306 -110.925,-66.7098 -114.027,-71.3639 -3.879,-5.4299 -5.431,-62.8312 -3.879,-128.7652 l 1.551,-120.2325 111.7,-64.3827 c 61.279,-35.6818 113.252,-64.3826 114.803,-64.3826 0.776,0 2.327,17.841 2.327,38.7847 0,21.7194 3.879,38.7848 7.757,38.7848 4.655,0 7.757,-54.2985 7.757,-147.3819 0,-80.6723 -2.327,-147.3817 -6.206,-147.3817 -3.102,0 -58.177,52.7472 -121.783,116.3539 l -116.355,116.3541 h -240.464 -240.466 l -246.67,-246.6706 -246.67,-246.6706 V 721.49685 480.25598 l 120.232,-123.33525 120.233,-122.55961 0.776,-133.4194 V -33.253333 h 492.565 492.565 l 0.777,130.316574 c 0.774,71.363829 1.55,136.522109 2.326,145.054719 0.776,11.63545 35.682,34.13056 152.036,94.63471 138.074,72.91526 152.036,78.34503 161.345,65.93394 13.187,-17.06522 7.756,-20.9437 -122.56,-86.87763 -57.401,-28.70079 -119.457,-61.27993 -137.298,-71.36395 l -32.579,-18.61664 139.624,2.32706 139.626,2.32719 36.456,44.99023 c 59.729,74.46654 128.766,148.93321 138.075,148.93321 4.654,0 13.186,-11.63545 20.168,-26.3736 6.98,-13.9625 24.046,-34.13055 37.232,-44.21459 48.095,-35.68185 116.355,-102.39155 116.355,-113.25122 0,-7.75696 17.841,-10.08403 79.897,-10.08403 43.438,0 113.251,-2.32719 154.363,-5.4299 l 76.017,-4.65412 1.552,-124.886789 2.327,-124.886683 h 492.566 492.566 l 3.878,127.213743 3.879,127.989499 43.438,-2.32706 c 42.663,-1.55141 43.439,-1.55141 43.439,20.16805 0,51.19578 58.952,92.30753 184.615,127.9895 54.299,15.51393 79.897,17.841 205.559,17.841 126.439,0 151.261,-2.32707 204.783,-17.841 124.111,-35.68197 187.717,-80.67221 181.512,-127.21385 -3.879,-21.71934 -3.101,-21.71934 41.111,-21.71934 73.691,0 69.038,-11.63546 70.589,165.99842 0.775,85.32633 3.102,138.07352 5.431,116.35418 l 4.653,-39.56046 114.803,65.93406 114.027,65.93393 v 121.78396 c 0,106.27004 -1.551,123.33526 -13.187,133.41928 -14.738,12.41109 -207.885,122.55973 -215.643,122.55973 -2.327,0 -3.878,-17.84099 -3.878,-39.56045 0,-24.82219 -3.104,-37.23328 -7.757,-34.13056 -5.43,3.10284 -7.757,58.95274 -7.757,153.58742 l 1.551,148.9333 -127.213,126.438 -127.214,125.6624 h -235.811 -236.587 l -87.653,-83.7749 c -47.318,-45.7659 -104.719,-100.0644 -125.662,-121.7839 l -38.785,-38.7847 -122.559,122.5596 -121.786,121.7839 h -240.463 -240.466 l -121.784,-121.7839 -122.559,-122.5596 1.55,155.1387 c 0,85.3264 3.103,138.0735 5.431,116.3541 2.327,-20.9437 8.532,-38.0089 12.411,-37.2333 4.654,0.7757 53.523,27.1493 108.597,58.9527 l 100.841,58.1771 v 133.4192 133.4195 l -104.72,61.2798 c -57.401,33.3549 -107.045,60.5041 -110.148,60.5041 -3.879,0.7758 -6.981,-17.8409 -7.758,-39.5603 -0.775,-22.4951 -3.877,30.252 -6.204,117.9054 l -3.879,159.0173 -112.475,0.7757 c -142.729,1.5512 -145.832,1.5512 -133.42,9.3082 11.635,7.757 -21.718,58.9528 -97.738,151.2605 l -50.419,59.7282 h -97.738 -97.737 z m 2328.631,-1161.2137 c 3.104,-5.43 -85.325,-7.757 -259.08,-7.757 -171.429,0 -264.512,3.1027 -264.512,7.757 0,4.6541 91.532,7.7568 259.082,7.7568 165.222,0 261.409,-3.1027 264.51,-7.7568 z m -750.095,-204.0077 1.552,-183.83935 h -484.808 -484.809 v 180.73675 c 0,100.0644 1.55,183.0637 3.102,184.6152 339.226,4.825 597.853,2.9173 962.636,2.327 z m -1954.748,0.7758 -2.328,-180.73668 -482.481,-2.32706 -483.256,-1.55141 V 1017.812 1200.1 h 969.616 z m 977.374,0 -2.327,-180.73668 -478.603,-2.32706 -479.378,-1.55141 V 1017.812 1200.1 h 480.929 480.931 z m 1948.543,-2.327 V 835.52385 h -477.051 -477.052 V 1017.812 1200.1 h 477.052 477.051 z M 14828.515,245.99644 c -7.757,-14.73815 -17.066,-10.85967 -165.224,62.83122 -86.102,43.43881 -158.241,79.89645 -159.015,80.67222 -1.553,1.5514 -0.778,10.08402 2.325,18.61663 4.656,14.73816 16.291,10.08402 167.551,-65.15828 149.708,-75.24233 162.119,-82.99928 154.363,-96.96179 z"
     id="path2264"
     style="stroke-width:0.775694"
     sodipodi:nodetypes="ccccccsccsccccsssssccccccccccccccccccccccccsccsscccccccccscsccscccccscssccccccccccccccccccccccccccccccccccccssscccccsccccccccccccccccccccccccccccccccccc" /></g></g>
</svg>
