<?xml version="1.0" encoding="UTF-8" standalone="no"?>
<svg xmlns:dc="http://purl.org/dc/elements/1.1/" xmlns:cc="http://creativecommons.org/ns#" xmlns:rdf="http://www.w3.org/1999/02/22-rdf-syntax-ns#" xmlns:svg="http://www.w3.org/2000/svg" xmlns="http://www.w3.org/2000/svg" xmlns:sodipodi="http://sodipodi.sourceforge.net/DTD/sodipodi-0.dtd" xmlns:inkscape="http://www.inkscape.org/namespaces/inkscape" xml:space="preserve" width="297mm" height="210mm" style="shape-rendering:geometricPrecision; text-rendering:geometricPrecision; image-rendering:optimizeQuality; fill-rule:evenodd; clip-rule:evenodd" viewBox="0 0 297 210" version="1.1" id="svg206" sodipodi:docname="molde.svg" inkscape:version="1.0.2 (e86c870879, 2021-01-15)">
  <title id="title1035">Molde</title>
  <metadata id="metadata210">
    <rdf:RDF>
      <cc:Work rdf:about="">
        <dc:format>image/svg+xml</dc:format>
        <dc:type rdf:resource="http://purl.org/dc/dcmitype/StillImage" />
        <dc:title>Molde</dc:title>
      </cc:Work>
    </rdf:RDF>
  </metadata>
  <sodipodi:namedview pagecolor="#ffffff" bordercolor="#666666" borderopacity="1" objecttolerance="10" gridtolerance="10" guidetolerance="10" inkscape:pageopacity="0" inkscape:pageshadow="2" inkscape:window-width="1366" inkscape:window-height="705" id="namedview208" showgrid="false" inkscape:zoom="1.3556746" inkscape:cx="1033.9029" inkscape:cy="-74.394424" inkscape:window-x="-8" inkscape:window-y="-8" inkscape:window-maximized="1" inkscape:current-layer="layer1" inkscape:document-rotation="0" />
  <defs id="defs113">
    <style type="text/css" id="style111">
      <![CDATA[
    .str0 {stroke:aqua;stroke-width:0.2}
    .fil0 {fill:none}
    .fil1 {fill:black}
   ]]>
    </style>
  </defs>
  <g inkscape:groupmode="layer" id="layer1" inkscape:label="Molde" style="display:inline">
    <g transform="matrix(0.01630016,0,0,-0.01630016,29.967414,209.77349)" fill="#000000" stroke="none" id="g1237">
      <path d="m 2830,12555 v -175 h 35 c 19,0 35,-4 35,-10 0,-6 -57,-10 -150,-10 h -150 v -405 -405 l -402,2 -403,3 -3,143 -3,142 h -394 -395 v -145 -145 H 761 523 l -5,-357 c -3,-197 -3,-361 -1,-365 2,-5 110,-8 239,-8 154,0 233,-3 229,-10 -4,-6 -63,-10 -146,-10 H 700 v -388 -389 l 212,-6 c 116,-4 364,-7 550,-7 h 339 l -3,-400 -3,-400 h 148 c 91,0 147,-4 147,-10 0,-5 -13,-10 -30,-10 h -30 v -175 -175 h 180 180 v 175 175 h -30 c -16,0 -30,5 -30,10 0,6 55,10 145,10 h 145 l 2,400 3,400 h 400 400 l 3,-140 3,-140 h 394 395 v 146 c 0,94 4,143 10,139 7,-4 10,48 10,149 0,97 4,156 10,156 6,0 10,-16 10,-35 v -34 h 175 l 175,1 v 184 184 h -175 -175 v -30 c 0,-16 -4,-30 -10,-30 -6,0 -10,48 -10,125 v 125 l -407,2 c -367,2 -384,3 -168,8 l 240,5 v 103 c 0,56 -1,219 -3,362 l -2,260 -232,2 -233,3 -3,403 -2,402 h -145 c -90,0 -145,4 -145,10 0,6 14,10 30,10 h 30 v 175 175 h -185 -185 z m 214,82 c 15,-11 19,-28 19,-78 1,-77 -5,-89 -43,-89 -38,0 -41,8 -42,87 -1,53 3,69 17,80 23,16 27,16 49,0 z m 364,-689 -3,-393 h -390 -390 l -3,393 -2,392 h 395 395 z m -1989,-172 c 7,-9 11,-41 9,-82 -3,-77 -19,-96 -62,-76 -24,11 -26,16 -26,80 0,40 5,73 12,80 16,16 53,15 67,-2 z m 221,-211 c 0,-13 -33,-15 -234,-15 -213,0 -258,4 -239,24 3,3 111,6 240,6 200,0 233,-2 233,-15 z m 155,-400 v -360 l -392,-3 c -388,-2 -393,-2 -393,18 0,19 -6,20 -234,20 -147,0 -236,4 -238,10 -1,5 -2,161 0,345 l 3,335 627,-2 627,-3 z m 805,0 v -365 h -390 -390 v 365 365 h 390 390 z m 1280,20 v -345 h -234 c -226,0 -234,-1 -239,-20 -5,-20 -12,-20 -394,-18 l -388,3 -3,350 c -1,192 0,356 3,362 3,10 137,13 630,13 h 625 z m -2083,-772 c 2,-338 1,-372 -14,-375 -9,-2 -187,-2 -395,0 l -378,2 v 375 375 l 393,-2 392,-3 z m 803,2 v -375 h -390 -390 l -2,353 c -2,193 -2,362 0,375 l 3,22 h 390 389 z m 808,-1 -3,-376 -385,1 c -287,2 -386,5 -392,14 -9,14 -11,698 -2,721 5,14 50,16 395,16 h 389 z m 812,1 c 0,-350 -1,-375 -17,-375 -20,-1 -665,-1 -730,0 h -43 v 368 c 0,203 3,372 7,375 3,4 181,7 395,7 h 388 z m -3230,1 c 0,-146 -4,-237 -10,-241 -7,-4 -10,56 -10,173 0,98 -3,207 -6,241 -6,52 -5,61 10,61 14,0 16,-24 16,-234 z m 3396,97 c 10,-48 11,-49 21,-13 7,28 14,35 34,35 24,0 24,-2 24,-85 0,-73 -2,-85 -17,-88 -14,-3 -18,4 -19,30 l -1,33 -7,-30 c -9,-42 -36,-44 -46,-3 l -9,33 -3,-32 c -3,-20 -10,-33 -19,-33 -11,0 -14,18 -14,83 0,46 3,87 7,90 16,17 43,6 49,-20 z m -3571,-70 c 8,-39 9,-38 19,10 5,20 12,27 31,27 25,0 25,-1 25,-85 0,-69 -3,-85 -15,-85 -10,0 -15,11 -16,38 l -1,37 -10,-37 c -12,-47 -34,-49 -47,-5 l -9,32 -1,-32 c -1,-22 -6,-33 -16,-33 -12,0 -15,16 -15,85 0,83 1,85 24,85 20,0 25,-7 31,-37 z m 3243,-438 c 3,-3 -3,-5 -14,-5 -10,0 -115,-2 -233,-5 -203,-5 -237,-3 -227,13 5,8 466,5 474,-3 z M 2600,9620 v -390 h -90 -90 v 185 c 0,117 -4,185 -10,185 -6,0 -10,-68 -10,-185 v -185 h -90 -90 l -2,182 c -2,134 -6,182 -15,186 -10,3 -13,-38 -13,-182 v -186 h -90 -90 v 185 c 0,117 -4,185 -10,185 -6,0 -10,-68 -10,-185 v -185 h -85 -85 v 390 390 h 390 390 z m 1218,298 10,-33 1,33 c 1,21 6,32 16,32 12,0 15,-17 15,-90 0,-82 -2,-90 -19,-90 -14,0 -22,10 -27,33 l -8,32 -5,-30 c -4,-17 -12,-30 -21,-30 -12,0 -16,18 -18,88 -3,86 -2,87 21,87 18,0 27,-8 35,-32 z m -1607,-828 7,-25 1,28 c 1,20 6,27 21,27 20,0 21,-5 18,-87 -3,-79 -5,-88 -22,-88 -13,0 -23,12 -32,35 l -12,35 -1,-37 c -1,-27 -5,-38 -16,-38 -12,0 -15,17 -15,91 0,88 1,90 22,87 14,-2 25,-13 29,-28 z" id="path405" />
      <path d="m 3010,12561 c 0,-33 5,-63 10,-66 6,-4 10,18 10,59 0,37 -4,66 -10,66 -6,0 -10,-26 -10,-59 z" id="path407" />
      <path d="m 1380,11700 c 0,-33 4,-60 10,-60 6,0 10,27 10,60 0,33 -4,60 -10,60 -6,0 -10,-27 -10,-60 z" id="path409" />
      <path d="m 9983,12337 -171,-302 106,-5 c 91,-4 107,-8 110,-22 3,-17 -30,-18 -587,-18 h -591 v -589 c 0,-555 -1,-589 -17,-587 -16,1 -19,15 -23,109 l -5,107 -302,-172 -302,-173 -1,-340 v -340 l 303,-172 302,-172 3,103 c 2,94 5,104 22,109 20,5 20,-3 20,-574 v -579 h -126 -126 l -340,340 -341,340 h -691 -691 l -342,-340 -342,-340 h -258 -258 l -347,345 -347,345 h -683 l -683,-1 -347,-344 -348,-345 h -135 -135 v -350 c 0,-341 0,-350 -20,-350 -18,0 -20,8 -22,104 l -3,104 -290,-167 -290,-167 -3,-325 -2,-326 292,-166 293,-166 5,102 c 4,87 8,102 23,105 16,3 17,-19 17,-347 v -351 h 133 132 l 346,-345 346,-345 h 684 l 684,1 350,344 350,345 h 1326 1326 l -5,-25 -4,-25 h -754 c -747,0 -754,0 -754,20 0,20 -7,20 -307,20 h -308 l 340,-340 340,-340 h 685 l 685,1 340,334 c 187,184 339,339 338,345 -2,6 45,10 132,10 h 135 l -2,-577 c -3,-537 -4,-578 -20,-581 -15,-3 -18,9 -20,105 l -3,109 -225,-128 c -124,-70 -260,-147 -302,-170 l -78,-42 v -340 -341 l 33,-19 c 296,-171 568,-326 572,-326 3,0 5,47 5,105 0,98 1,105 20,105 20,0 20,-7 20,-585 v -585 h 585 c 578,0 585,0 585,-20 0,-19 -7,-20 -106,-20 -64,0 -104,-4 -102,-10 2,-5 80,-142 173,-305 l 170,-295 h 341 342 l 108,192 c 59,106 136,242 171,301 35,60 63,110 63,113 0,2 -49,4 -109,4 -98,0 -109,2 -107,17 3,17 40,18 589,21 l 587,2 v 585 c 0,578 0,585 20,585 19,0 20,-7 20,-105 0,-58 3,-105 6,-105 3,0 81,43 172,96 92,53 227,130 300,172 l 132,75 v 342 341 l -67,37 c -38,20 -174,97 -303,170 l -235,135 -3,-109 c -2,-101 -4,-109 -22,-109 -20,0 -20,10 -20,580 v 580 h 126 125 l 346,-345 345,-345 h 687 686 l 345,345 345,345 h 137 138 l 285,284 285,285 v 578 578 l -288,288 -287,287 h -135 -135 l -340,340 -341,341 -694,-1 h -695 l -340,-340 -340,-340 h -128 -127 v 575 c 0,565 0,575 20,575 18,0 20,-8 22,-106 l 3,-105 155,89 c 85,48 221,126 303,172 l 147,83 v 341 341 l -303,173 -302,172 -3,-105 c -2,-97 -4,-105 -22,-105 -20,0 -20,10 -20,585 v 585 h -585 c -578,0 -585,0 -585,20 0,19 7,20 106,20 84,0 105,3 101,13 -3,7 -31,58 -64,113 -32,54 -108,186 -168,291 l -110,193 h -340 -340 z m 581,55 c 2,-4 -6,-38 -19,-75 l -24,-67 h 25 c 40,0 23,-25 -19,-28 -48,-4 -52,9 -27,82 25,73 25,76 0,76 -11,0 -20,5 -20,10 0,12 77,14 84,2 z m 1558,-999 c 2,-318 2,-1049 0,-1625 l -2,-1048 H 10495 8870 v 1625 1625 h 1625 1625 z m 322,-985 14,-31 7,31 c 4,22 12,32 26,32 23,0 23,6 -1,-58 -11,-29 -20,-68 -20,-87 0,-28 -4,-35 -20,-35 -17,0 -20,7 -20,39 0,21 -7,58 -15,81 -19,53 -19,60 0,60 9,0 22,-14 29,-32 z m -3920,0 7,-23 9,23 c 5,12 16,22 25,22 12,0 14,-6 8,-27 -10,-36 -10,-79 1,-120 7,-29 5,-33 -13,-33 -14,0 -23,9 -28,27 l -6,28 -10,-28 c -5,-15 -16,-27 -24,-27 -12,0 -14,6 -8,33 11,43 12,97 2,125 -7,18 -5,22 11,22 12,0 22,-9 26,-22 z M 3920,9187 c 0,-8 -9,-40 -20,-72 -11,-32 -20,-60 -20,-62 0,-1 9,-3 20,-3 11,0 20,-4 20,-10 0,-5 -18,-10 -40,-10 -45,0 -50,13 -26,71 28,70 29,79 7,79 -12,0 -21,5 -21,10 0,6 18,10 40,10 27,0 40,-4 40,-13 z m 9848,-44 10,-28 11,28 c 6,15 17,27 26,27 19,0 19,5 -5,-65 -11,-32 -20,-71 -20,-87 0,-23 -4,-29 -17,-26 -14,2 -19,17 -24,63 -4,33 -11,72 -17,88 -10,24 -9,27 7,27 12,0 23,-11 29,-27 z m -6491,-20 6,-28 10,28 c 5,15 15,27 23,27 17,0 17,-7 3,-48 -10,-29 -5,-63 16,-114 6,-14 2,-18 -17,-18 -17,0 -27,8 -35,28 -10,25 -11,25 -12,4 -1,-22 -26,-41 -38,-29 -3,3 1,29 8,57 10,38 10,58 2,80 -6,16 -8,31 -5,34 14,14 32,4 39,-21 z M 4710,8745 v -25 h -755 -755 v 25 25 h 755 755 z m 3270,0 v -25 h -755 -755 v 25 25 h 755 755 z m 6540,0 v -25 h -755 -755 v 25 25 h 755 755 z M 5580,7570 V 6440 H 3955 2330 v 1130 1130 h 1625 1625 z m 3270,0 V 6440 H 7225 5600 v 1130 1130 h 1625 1625 z m 3270,0 V 6440 H 10495 8870 v 1130 1130 h 1625 1625 z m 3270,0 V 6440 h -1625 -1625 v 1130 1130 h 1625 1625 z m 60,0 c 0,-633 0,-640 -20,-640 -20,0 -20,7 -20,633 0,349 3,637 7,640 3,4 12,7 20,7 11,0 13,-113 13,-640 z m 320,110 c 0,-5 -4,-10 -10,-10 -6,0 -10,-32 -10,-75 0,-68 -2,-75 -20,-75 -18,0 -20,7 -20,75 0,43 -4,75 -10,75 -5,0 -10,5 -10,10 0,6 18,10 40,10 22,0 40,-4 40,-10 z M 2040,7662 c 0,-4 -4,-12 -9,-17 -6,-6 -11,-41 -13,-80 -2,-57 -6,-70 -20,-73 -16,-3 -18,5 -18,71 0,59 -3,76 -16,81 -8,3 -12,10 -9,16 7,12 85,14 85,2 z m 2672,-1267 -4,-25 h -754 -754 v 25 25 h 759 758 z M 12120,4795 V 3170 H 10495 8870 v 1618 c 0,890 3,1622 7,1625 3,4 735,7 1625,7 h 1618 z m 2408,1603 -3,-23 -757,-3 -758,-2 v 25 25 h 761 760 z m -758,-264 c 6,-14 11,-40 11,-57 1,-25 3,-21 10,17 15,95 50,89 37,-6 -15,-108 -16,-110 -46,-106 -25,3 -27,7 -38,83 -6,44 -9,83 -7,88 8,15 24,6 33,-19 z m -9859,-29 c 1,-13 4,-9 8,10 8,38 42,42 51,6 l 5,-24 13,27 c 22,48 35,20 27,-56 -8,-89 -12,-98 -41,-98 -21,0 -24,5 -25,38 l -2,37 -10,-37 c -12,-43 -42,-52 -50,-15 -16,67 -19,140 -6,148 15,9 28,-6 30,-36 z m 3367,-38 c 4,-98 22,-101 22,-4 0,78 4,89 26,80 10,-4 14,-25 14,-77 0,-79 -9,-96 -50,-96 -14,0 -31,5 -38,12 -13,13 -17,150 -5,162 18,18 28,-7 31,-77 z M 8528,4796 c 4,-99 22,-91 22,10 0,59 3,74 15,74 12,0 15,-16 15,-85 0,-83 0,-85 -27,-91 -45,-12 -58,6 -61,81 -3,75 2,99 21,93 8,-3 13,-31 15,-82 z m 3933,27 c 0,-16 4,-37 9,-48 6,-15 9,-8 9,28 1,41 4,47 22,47 20,0 21,-4 15,-52 -14,-114 -16,-118 -46,-118 -26,0 -28,3 -34,63 -4,34 -10,72 -13,85 -4,17 -1,22 16,22 16,0 21,-6 22,-27 z m -2008,-1975 3,-33 8,33 c 7,25 14,32 32,32 20,0 24,-5 25,-32 l 1,-33 9,33 c 6,19 16,32 25,32 13,0 15,-8 10,-45 -3,-25 -9,-65 -12,-90 -5,-39 -9,-45 -30,-45 -17,0 -24,6 -24,19 0,11 -3,28 -7,38 -6,14 -9,10 -13,-17 -4,-27 -10,-35 -25,-35 -18,0 -21,10 -30,88 -10,80 -10,87 6,87 12,0 19,-10 22,-32 z" id="path411" />
      <path d="m 220,9880 v -180 h 35 c 19,0 35,-4 35,-10 0,-6 -55,-10 -145,-10 H 0 V 6365 3050 h 405 405 v 145 145 h 175 175 v 800 800 H 990 820 v 780 780 h 170 170 v 800 800 H 990 820 v 790 790 H 675 c -90,0 -145,4 -145,10 0,6 16,10 35,10 h 35 v 180 180 H 410 220 Z m 214,63 c 2,-10 7,-38 11,-63 3,-25 8,-57 11,-72 5,-23 2,-28 -15,-28 -14,0 -21,6 -21,19 0,30 -19,35 -26,6 -8,-32 -34,-33 -34,-2 0,27 20,139 27,150 8,14 42,7 47,-10 z M 795,9265 V 8875 H 410 25 l -3,393 -2,392 387,-2 388,-3 z m 3,-787 2,-378 H 410 20 v 373 c 0,206 3,377 7,380 4,4 178,6 387,5 l 381,-3 z M 1140,7300 V 6520 H 580 20 v 780 780 h 560 560 z M 795,6115 v -380 l -387,-3 -388,-2 v 378 c 0,208 3,382 7,385 4,4 178,6 387,5 l 381,-3 z m 5,-790 V 4940 H 410 20 v 385 385 H 410 800 Z M 1140,4140 V 3360 H 580 20 v 773 c 0,426 3,777 7,780 3,4 255,7 560,7 h 553 z M 650,3330 c 0,-6 -78,-10 -212,-11 -117,-1 -224,-2 -238,-3 -31,-2 -42,3 -35,15 8,13 485,12 485,-1 z M 385,3213 c 4,-27 11,-65 15,-85 4,-20 5,-39 2,-43 -13,-12 -31,-3 -34,17 -4,28 -28,36 -28,9 0,-11 -5,-23 -11,-27 -22,-13 -29,12 -19,72 18,103 19,104 45,104 21,0 25,-6 30,-47 z" id="path607" />
      <path d="m 3496,5348 c -28,-45 -266,-467 -266,-473 0,-3 38,-5 85,-5 69,0 85,-3 85,-15 0,-13 -45,-15 -345,-15 h -345 l 1,-262 c 0,-411 0,-418 -11,-418 -6,0 -10,35 -10,86 0,65 -3,85 -12,81 -7,-3 -119,-66 -248,-140 l -235,-134 v -278 -278 l 244,-138 c 134,-77 245,-139 247,-139 2,0 4,41 4,90 0,53 4,90 10,90 6,0 10,-26 11,-57 1,-205 -1,-596 -3,-599 -2,-2 -118,111 -258,251 l -255,255 H 1670 1145 L 885,2990 C 742,2847 619,2730 613,2730 c -7,0 -13,-6 -13,-13 0,-6 -117,-129 -260,-272 L 80,2185 V 1660 1135 L 340,875 600,615 V 322 30 l 1068,2 1067,3 3,278 2,277 H 3785 4830 V 310 30 h 1065 1065 v 23 c 0,12 0,138 0,279 l -1,258 1058,2 1058,3 3,343 c 2,291 4,342 17,342 11,0 15,-19 17,-85 l 3,-85 240,138 240,138 2,279 3,280 -243,137 -242,137 -3,-84 c -2,-67 -6,-85 -17,-85 -13,0 -15,48 -15,340 0,266 -3,340 -13,340 -6,0 -129,117 -272,260 l -260,260 h -525 -525 l -260,-260 c -143,-143 -264,-260 -270,-260 -6,0 -127,117 -270,260 l -260,260 h -523 -524 l -260,-257 c -142,-142 -261,-260 -264,-262 -2,-3 -3,146 -2,330 2,216 7,333 13,332 6,-2 12,-41 15,-88 l 5,-84 248,142 247,141 v 273 c 0,272 0,273 -22,286 -49,30 -470,267 -474,267 -2,0 -4,-38 -4,-85 0,-69 -3,-85 -15,-85 -13,0 -15,44 -15,340 v 340 h -340 c -296,0 -340,2 -340,15 0,12 16,15 86,15 47,0 84,4 82,8 -1,5 -65,118 -142,250 l -139,242 h -273 c -273,0 -274,0 -288,-22 z m 322,-160 c 2,-20 -1,-28 -12,-28 -9,0 -16,9 -16,20 0,11 -4,20 -10,20 -5,0 -10,-13 -10,-30 0,-25 4,-30 25,-30 23,0 25,-4 25,-45 0,-40 -3,-45 -22,-46 -60,-3 -68,6 -68,79 0,72 13,94 53,90 27,-2 33,-8 35,-30 z M 4830,3775 V 2730 H 3785 2740 v 1045 1045 h 1045 1045 z m -2300,90 c 0,-8 -9,-15 -20,-15 -13,0 -20,-7 -20,-20 0,-11 6,-20 14,-20 24,0 30,-21 7,-27 -17,-4 -21,-13 -21,-44 0,-28 -4,-39 -15,-39 -12,0 -15,17 -15,90 v 90 h 35 c 24,0 35,-5 35,-15 z m 2620,-15 c 0,-5 -9,-10 -20,-10 -15,0 -20,-7 -20,-25 0,-16 6,-25 15,-25 8,0 15,-4 15,-10 0,-5 -7,-10 -15,-10 -10,0 -15,-10 -15,-30 0,-23 4,-30 20,-30 22,0 27,-15 7,-23 -6,-2 -23,-4 -37,-3 -24,1 -25,3 -28,89 l -3,87 h 41 c 22,0 40,-4 40,-10 z m 2878,-782 c 4,-35 -24,-39 -31,-5 -3,16 -5,13 -6,-10 -1,-27 3,-33 19,-33 17,0 20,-7 20,-46 v -45 l -37,3 -38,3 -3,69 c -4,89 0,98 40,94 28,-2 34,-8 36,-30 z m -2088,12 c 0,-5 -9,-10 -20,-10 -14,0 -20,-7 -20,-21 0,-12 8,-23 20,-26 23,-6 27,-23 6,-23 -13,0 -26,-20 -26,-41 0,-5 12,-14 27,-20 32,-12 19,-25 -24,-24 h -28 l -3,88 -3,87 h 36 c 19,0 35,-4 35,-10 z m -4280,-9 c 0,-5 -9,-11 -19,-14 -14,-3 -18,-11 -14,-26 3,-12 12,-21 19,-21 8,0 14,-4 14,-10 0,-5 -6,-10 -14,-10 -10,0 -16,-14 -18,-42 -2,-31 -8,-44 -20,-46 -16,-3 -18,6 -18,87 v 91 h 35 c 19,0 35,-4 35,-9 z m 580,-326 c 0,-13 -71,-15 -575,-15 -504,0 -575,2 -575,15 0,13 71,15 575,15 504,0 575,-2 575,-15 z m 4240,0 c 0,-13 -71,-15 -580,-15 -509,0 -580,2 -580,15 0,13 71,15 580,15 509,0 580,-2 580,-15 z m 2110,0 c 0,-13 -71,-15 -580,-15 -509,0 -580,2 -580,15 0,13 71,15 580,15 509,0 580,-2 580,-15 z M 2710,1390 c 0,-723 0,-1321 0,-1328 0,-10 -212,-12 -1042,-10 l -1043,3 -3,1315 c -1,723 0,1321 3,1328 3,10 218,12 1045,10 l 1040,-3 z m 2120,275 V 620 H 3785 2740 v 1045 1045 h 1045 1045 z m 2110,-280 c 0,-726 0,-1323 0,-1328 0,-4 -469,-6 -1042,-5 l -1043,3 -3,1328 -2,1327 1045,-2 1045,-3 z m 2118,278 2,-1043 H 8010 6960 v 1038 c 0,571 3,1042 7,1045 3,4 475,6 1047,5 l 1041,-3 z m -8458,-3 c 0,-509 -2,-580 -15,-580 -13,0 -15,71 -15,580 0,509 2,580 15,580 13,0 15,-71 15,-580 z m 8770,55 c 10,-12 10,-21 2,-40 -7,-15 -8,-26 -2,-30 16,-10 12,-62 -6,-79 -8,-9 -29,-16 -45,-16 h -29 v 90 90 h 34 c 18,0 39,-7 46,-15 z m -9034,-3 c 7,-4 12,-37 12,-79 1,-80 -9,-96 -55,-91 l -28,3 -3,88 -3,87 h 33 c 18,0 38,-4 44,-8 z" id="path609" />
      <path d="m 3770,5090 c 0,-11 5,-20 10,-20 6,0 10,9 10,20 0,11 -4,20 -10,20 -5,0 -10,-9 -10,-20 z" id="path611" />
      <path d="m 3360.3425,4273 c 243.2258,-2 643.9814,-2 888.4675,0 243.2258,1 44.1083,2 -444.864,2 -488.9721,0 -688.0896,-1 -443.6035,-2 z" id="path613" style="stroke-width:1.1226" />
      <path d="m 7992,2970 c 0,-14 2,-19 5,-12 2,6 2,18 0,25 -3,6 -5,1 -5,-13 z" id="path787" />
      <path d="m 9326,1702 c -2,-4 -1,-14 5,-22 7,-12 9,-10 9,8 0,23 -5,28 -14,14 z" id="path789" />
      <path d="m 9324,1610 c -1,-17 3,-30 7,-30 5,0 9,14 9,30 0,39 -15,39 -16,0 z" id="path791" />
      <path d="m 300,1674 c 0,-8 5,-12 10,-9 6,3 10,10 10,16 0,5 -4,9 -10,9 -5,0 -10,-7 -10,-16 z" id="path793" />
      <path d="m 300,1601 c 0,-17 4,-31 8,-31 11,0 13,48 2,55 -6,4 -10,-7 -10,-24 z" id="path795" />
      <path d="m 13197,4433 c -4,-3 -7,-82 -7,-175 v -168 h 35 c 19,0 35,-4 35,-10 0,-6 -57,-10 -150,-10 h -150 v -400 -400 l -222,-1 c -123,-1 -229,-1 -235,0 -10,2 -13,-78 -13,-368 v -371 l 238,-3 c 155,-1 96,-3 -170,-5 l -408,-2 v -125 c 0,-77 -4,-125 -10,-125 -5,0 -10,14 -10,30 v 30 h -175 -175 v -185 -185 h 175 175 v 35 c 0,19 5,35 10,35 6,0 10,-57 10,-150 0,-93 4,-150 10,-150 6,0 10,-55 10,-145 v -145 h 395 395 v 145 145 l 403,-2 402,-3 3,-402 2,-403 h 145 c 90,0 145,-4 145,-10 0,-5 -13,-10 -30,-10 h -30 V 725 550 h 185 185 v 175 175 h -36 c -21,0 -33,4 -29,10 4,6 65,10 151,10 h 144 v 405 405 h 545 545 v 390 390 h -140 c -87,0 -140,4 -140,10 0,6 85,10 235,10 h 235 l -2,368 -3,367 -242,3 -243,2 v 140 140 h -395 -395 v -140 -140 l -401,-2 c -220,-2 -403,-1 -405,1 -2,2 -4,184 -4,403 v 398 h -145 c -90,0 -145,4 -145,10 0,6 14,10 30,10 h 30 v 175 175 h -178 c -98,0 -182,-3 -185,-7 z m 222,-239 c -14,-17 -58,-18 -64,-1 -11,33 -9,51 7,55 12,2 18,-5 21,-25 2,-15 5,7 6,49 1,64 4,77 19,80 15,3 17,-6 20,-70 2,-46 -2,-79 -9,-88 z m 351,-534 v -390 h -395 -395 v 390 390 h 395 395 z m 1230,-245 c 0,-82 -1,-85 -25,-91 -15,-4 -32,-1 -40,6 -20,17 -20,70 0,70 9,0 15,-9 15,-25 0,-14 5,-25 10,-25 6,0 10,32 10,75 0,60 3,75 15,75 12,0 15,-16 15,-85 z m 230,-135 c 0,-6 -87,-10 -240,-10 -153,0 -240,4 -240,10 0,6 87,10 240,10 153,0 240,-4 240,-10 z m -1462,-402 -3,-363 -388,-3 c -382,-2 -389,-2 -394,18 -5,19 -13,20 -239,20 h -234 v 345 345 h 630 630 z m 810,0 -3,-363 -392,-3 -393,-2 v 365 365 h 395 395 z m 1280,20 -3,-343 -235,-5 c -200,-4 -235,-7 -235,-20 0,-13 -51,-15 -392,-18 l -393,-2 v 365 365 h 630 630 z m -2900,-775 2,-373 h -395 -395 v 368 c 0,203 3,372 7,375 4,4 180,6 392,5 l 386,-3 z m 810,0 2,-373 h -395 -395 v 369 c 0,286 3,370 13,374 6,3 183,4 392,4 l 380,-2 z m 810,0 2,-373 h -395 -395 v 368 c 0,203 3,372 7,375 4,4 180,6 392,5 l 386,-3 z m 807,2 v -370 l -392,-3 -393,-2 v 368 c 0,203 3,372 6,375 4,3 180,5 393,4 l 386,-2 z m 45,1 c 0,-146 -4,-237 -10,-241 -7,-4 -10,77 -10,234 0,154 4,241 10,241 6,0 10,-85 10,-234 z m -3478,77 1,-38 4,38 c 3,29 8,37 24,37 18,0 20,-6 17,-87 -3,-74 -6,-88 -20,-91 -15,-3 -18,5 -20,45 l -1,48 -6,-45 c -4,-32 -11,-46 -23,-48 -16,-3 -18,6 -18,87 0,84 1,91 20,91 16,0 20,-7 22,-37 z m 3599,-43 6,-35 2,38 c 1,31 4,38 19,35 14,-3 17,-17 20,-91 3,-82 2,-87 -18,-87 -17,0 -20,7 -22,43 l -1,42 -4,-42 c -3,-35 -8,-43 -24,-43 -17,0 -19,8 -19,91 0,81 2,90 18,87 11,-2 19,-16 23,-38 z m -2746,-440 c 4,-7 -77,-10 -235,-10 -158,0 -239,3 -235,10 4,6 93,10 235,10 142,0 231,-4 235,-10 z m 1770,-12 c 3,-13 4,-189 3,-393 l -3,-370 -82,-3 -83,-3 v 186 c 0,158 -2,185 -15,185 -13,0 -15,-27 -15,-185 V 940 h -90 -90 v 185 c 0,117 -4,185 -10,185 -6,0 -10,-68 -10,-185 V 940 h -90 -90 v 185 c 0,158 -2,185 -15,185 -13,0 -15,-27 -15,-185 V 940 h -90 -90 v 388 c 0,214 3,392 7,395 3,4 179,7 389,7 h 384 z m -1983,-128 c 4,-95 2,-100 -23,-100 -17,0 -19,8 -19,83 0,85 3,97 26,97 9,0 13,-24 16,-80 z m 1618,-860 c 0,-83 -1,-90 -20,-90 -19,0 -20,7 -20,90 0,83 1,90 20,90 19,0 20,-7 20,-90 z" id="path797" />
      <path d="m 3193.4757,4306.2192 c -0.5815,-307.1925 1.7557,-813.3051 5.1814,-1122.0424 2.4185,-307.1573 2.2572,-55.6807 -0.5944,561.8404 -2.8517,617.5211 -5.0129,868.9743 -4.587,560.202 z" id="path613-4" style="clip-rule:evenodd;display:inline;fill-rule:evenodd;stroke-width:8.11597353;image-rendering:optimizeQuality;shape-rendering:geometricPrecision;text-rendering:geometricPrecision;stroke:#000000;stroke-opacity:1;stroke-miterlimit:4;stroke-dasharray:none" />
      <path d="m 4438.15,4318.2051 c -0.5815,-307.1925 1.7557,-813.3051 5.1814,-1122.0424 2.4185,-307.1573 2.2572,-55.6807 -0.5944,561.8404 -2.8517,617.5211 -5.0129,868.9743 -4.587,560.202 z" id="path613-4-2" style="clip-rule:evenodd;display:inline;fill-rule:evenodd;stroke-width:8.11597353;image-rendering:optimizeQuality;shape-rendering:geometricPrecision;text-rendering:geometricPrecision;stroke-miterlimit:4;stroke-dasharray:none;stroke:#000000;stroke-opacity:1" />
      <text xml:space="preserve" style="font-style:normal;font-weight:normal;font-size:259.711px;line-height:1.25;font-family:sans-serif;fill:#b3b3b3;fill-opacity:1;stroke:none;stroke-width:16.2319;" x="1238.6737" y="-7265.8916" id="text1706" transform="scale(1,-1)">
        <tspan sodipodi:role="line" id="tspan1704" x="1238.6737" y="-7265.8916" style="font-size:259.711px;stroke-width:16.2319;fill:#b3b3b3;">c</tspan>
      </text>
      <text xml:space="preserve" style="font-style:normal;font-weight:normal;font-size:259.711px;line-height:1.25;font-family:sans-serif;clip-rule:evenodd;display:inline;fill:#999999;fill-opacity:1;fill-rule:evenodd;stroke:none;stroke-width:16.2319;image-rendering:optimizeQuality;shape-rendering:geometricPrecision;text-rendering:geometricPrecision" x="4245.0596" y="-3674.8433" id="text1706-5" transform="scale(1,-1)">
        <tspan sodipodi:role="line" id="tspan1704-4" x="4245.0596" y="-3674.8433" style="font-size:259.711px;fill:#999999;stroke-width:16.2319">c</tspan>
      </text>
      <text xml:space="preserve" style="font-style:normal;font-weight:normal;font-size:649.278px;line-height:1.25;font-family:sans-serif;fill:#000000;fill-opacity:1;stroke:none;stroke-width:16.2319" x="1286.567" y="-4140.8511" id="text1734" transform="scale(1,-1)">
        <tspan sodipodi:role="line" id="tspan1732" x="1286.567" y="-4140.8511" style="stroke-width:16.2319" />
      </text>
      <text xml:space="preserve" style="font-style:normal;font-weight:normal;font-size:259.711px;line-height:1.25;font-family:sans-serif;clip-rule:evenodd;display:inline;fill:#b3b3b3;fill-opacity:1;fill-rule:evenodd;stroke:none;stroke-width:16.2319;image-rendering:optimizeQuality;shape-rendering:geometricPrecision;text-rendering:geometricPrecision" x="1263.6992" y="-4034.0432" id="text1706-6" transform="scale(1,-1)">
        <tspan sodipodi:role="line" id="tspan1704-2" x="1263.6992" y="-4034.0432" style="font-size:259.711px;fill:#b3b3b3;stroke-width:16.2319">D</tspan>
      </text>
      <text xml:space="preserve" style="font-style:normal;font-weight:normal;font-size:259.711px;line-height:1.25;font-family:sans-serif;clip-rule:evenodd;display:inline;fill:#b3b3b3;fill-opacity:1;fill-rule:evenodd;stroke:none;stroke-width:16.2319;image-rendering:optimizeQuality;shape-rendering:geometricPrecision;text-rendering:geometricPrecision" x="3228.8801" y="-3651.3196" id="text1706-6-9" transform="scale(1,-1)">
        <tspan sodipodi:role="line" id="tspan1704-2-4" x="3228.8801" y="-3651.3196" style="font-size:259.711px;fill:#b3b3b3;stroke-width:16.2319">D</tspan>
      </text>
      <path d="m 9580.6976,5670.8022 c -0.582,-471.479 1.755,-1248.2606 5.181,-1722.1107 2.419,-471.425 2.257,-85.4587 -0.594,862.3127 -2.852,947.7714 -5.013,1333.7018 -4.587,859.798 z" id="path613-4-7-5" style="clip-rule:evenodd;display:inline;fill-rule:evenodd;stroke-width:8.11597353;image-rendering:optimizeQuality;shape-rendering:geometricPrecision;text-rendering:geometricPrecision;stroke-miterlimit:4;stroke-dasharray:none;stroke:#000000;stroke-opacity:1" />
      <path d="m 11556.298,5743.4544 c -0.582,-471.479 1.755,-1248.2606 5.181,-1722.1107 2.419,-471.425 2.257,-85.4587 -0.594,862.3127 -2.852,947.7714 -5.013,1333.7018 -4.587,859.798 z" id="path613-4-7-5-5" style="clip-rule:evenodd;display:inline;fill-rule:evenodd;stroke-width:8.11597353;image-rendering:optimizeQuality;shape-rendering:geometricPrecision;text-rendering:geometricPrecision;stroke:#000000;stroke-opacity:1;stroke-miterlimit:4;stroke-dasharray:none" />
      <text xml:space="preserve" style="font-style:normal;font-weight:normal;font-size:259.711px;line-height:1.25;font-family:sans-serif;clip-rule:evenodd;display:inline;fill:#b3b3b3;fill-opacity:1;fill-rule:evenodd;stroke:none;stroke-width:16.2319;image-rendering:optimizeQuality;shape-rendering:geometricPrecision;text-rendering:geometricPrecision" x="9646.5879" y="-4800.7598" id="text1706-6-9-5" transform="scale(1,-1)">
        <tspan sodipodi:role="line" id="tspan1704-2-4-5" x="9646.5879" y="-4800.7598" style="font-size:259.711px;fill:#b3b3b3;stroke-width:16.2319">R</tspan>
      </text>
      <text xml:space="preserve" style="font-style:normal;font-weight:normal;font-size:259.711px;line-height:1.25;font-family:sans-serif;clip-rule:evenodd;display:inline;fill:#b3b3b3;fill-opacity:1;fill-rule:evenodd;stroke:none;stroke-width:16.2319;image-rendering:optimizeQuality;shape-rendering:geometricPrecision;text-rendering:geometricPrecision" x="6990.1562" y="-47.34544" id="text1706-6-9-5-9" transform="scale(1,-1)">
        <tspan sodipodi:role="line" id="tspan1704-2-4-5-1" x="6990.1562" y="-47.34544" style="font-size:259.711px;fill:#b3b3b3;stroke-width:16.2319">R</tspan>
      </text>
      <text xml:space="preserve" style="font-style:normal;font-weight:normal;font-size:259.711px;line-height:1.25;font-family:sans-serif;clip-rule:evenodd;display:inline;fill:#b3b3b3;fill-opacity:1;fill-rule:evenodd;stroke:none;stroke-width:16.2319;image-rendering:optimizeQuality;shape-rendering:geometricPrecision;text-rendering:geometricPrecision" x="11312.53" y="-4824.7065" id="text1706-6-9-5-0" transform="scale(1,-1)">
        <tspan sodipodi:role="line" id="tspan1704-2-4-5-3" x="11312.53" y="-4824.7065" style="font-size:259.711px;fill:#b3b3b3;stroke-width:16.2319">S</tspan>
      </text>
      <text xml:space="preserve" style="font-style:normal;font-weight:normal;font-size:259.711px;line-height:1.25;font-family:sans-serif;clip-rule:evenodd;display:inline;fill:#b3b3b3;fill-opacity:1;fill-rule:evenodd;stroke:none;stroke-width:16.2319;image-rendering:optimizeQuality;shape-rendering:geometricPrecision;text-rendering:geometricPrecision" x="2789.2375" y="-59.31905" id="text1706-6-9-5-0-3" transform="scale(1,-1)">
        <tspan sodipodi:role="line" id="tspan1704-2-4-5-3-0" x="2789.2375" y="-59.31905" style="font-size:259.711px;fill:#b3b3b3;stroke-width:16.2319">S</tspan>
      </text>
      <path d="m 1642.5235,718.23364 c 154.3566,187.9809 406.1214,499.78136 558.1577,691.25566 152.0225,189.8656 26.1538,35.5741 -281.0309,-344.8617 C 1612.4657,684.19184 1488.1531,528.64394 1642.5235,718.23364 Z" id="path613-6" style="clip-rule:evenodd;display:inline;fill-rule:evenodd;stroke-width:8.11597353;image-rendering:optimizeQuality;shape-rendering:geometricPrecision;text-rendering:geometricPrecision;stroke-miterlimit:4;stroke-dasharray:none;stroke:#000000;stroke-opacity:1" />
      <path d="m 1068.2663,1268.6334 c 154.3566,187.9809 406.1214,499.7814 558.1577,691.2557 152.0225,189.8656 26.1538,35.5741 -281.0309,-344.8617 -307.1846,-380.4358 -431.4972,-535.9837 -277.1268,-346.394 z" id="path613-6-9" style="clip-rule:evenodd;display:inline;fill-rule:evenodd;stroke-width:8.11597353;image-rendering:optimizeQuality;shape-rendering:geometricPrecision;text-rendering:geometricPrecision;fill:#000000;fill-opacity:1;stroke:#000000;stroke-opacity:1;stroke-miterlimit:4;stroke-dasharray:none" />
      <path d="m 6583.2186,1324.5845 c -162.0974,181.3484 -431.619,477.9343 -597.5241,657.5252 -164.3176,179.3308 -31.1445,31.298 297.7058,-330.5741 328.8501,-361.872 463.5033,-508.5597 299.8183,-326.9511 z" id="path613-6-3" style="clip-rule:evenodd;display:inline;fill-rule:evenodd;stroke-width:8.11597353;image-rendering:optimizeQuality;shape-rendering:geometricPrecision;text-rendering:geometricPrecision;stroke-miterlimit:4;stroke-dasharray:none;stroke:#000000;stroke-opacity:1" />
      <path d="m 5951.2946,841.48685 c -162.0974,181.34835 -431.6189,477.93425 -597.5241,657.52525 -164.3176,179.3307 -31.1445,31.2979 297.7057,-330.5742 328.8502,-361.87195 463.5035,-508.55965 299.8184,-326.95105 z" id="path613-6-9-0" style="clip-rule:evenodd;display:inline;fill-rule:evenodd;stroke-width:8.11597353;image-rendering:optimizeQuality;shape-rendering:geometricPrecision;text-rendering:geometricPrecision;stroke:#000000;stroke-opacity:1;stroke-miterlimit:4;stroke-dasharray:none" />
      <text xml:space="preserve" style="font-style:normal;font-weight:normal;font-size:259.711px;line-height:1.25;font-family:sans-serif;clip-rule:evenodd;display:inline;fill:#b3b3b3;fill-opacity:1;fill-rule:evenodd;stroke:none;stroke-width:16.2319;image-rendering:optimizeQuality;shape-rendering:geometricPrecision;text-rendering:geometricPrecision" x="1244.677" y="-1220.7324" id="text1706-6-9-5-0-6" transform="scale(1,-1)">
        <tspan sodipodi:role="line" id="tspan1704-2-4-5-3-5" x="1244.677" y="-1220.7324" style="font-size:259.711px;fill:#b3b3b3;stroke-width:16.2319">K</tspan>
      </text>
      <text xml:space="preserve" style="font-style:normal;font-weight:normal;font-size:259.711px;line-height:1.25;font-family:sans-serif;clip-rule:evenodd;display:inline;fill:#b3b3b3;fill-opacity:1;fill-rule:evenodd;stroke:none;stroke-width:16.2319;image-rendering:optimizeQuality;shape-rendering:geometricPrecision;text-rendering:geometricPrecision" x="1903.2109" y="-1280.5992" id="text1706-6-9-5-0-9" transform="scale(1,-1)">
        <tspan sodipodi:role="line" id="tspan1704-2-4-5-3-3" x="1903.2109" y="-1280.5992" style="font-size:259.711px;fill:#b3b3b3;stroke-width:16.2319">L</tspan>
      </text>
      <text xml:space="preserve" style="font-style:normal;font-weight:normal;font-size:259.711px;line-height:1.25;font-family:sans-serif;clip-rule:evenodd;display:inline;fill:#b3b3b3;fill-opacity:1;fill-rule:evenodd;stroke:none;stroke-width:16.2319;image-rendering:optimizeQuality;shape-rendering:geometricPrecision;text-rendering:geometricPrecision" x="5495.2114" y="-1412.3058" id="text1706-6-9-5-0-5" transform="scale(1,-1)">
        <tspan sodipodi:role="line" id="tspan1704-2-4-5-3-2" x="5495.2114" y="-1412.3058" style="font-size:259.711px;fill:#b3b3b3;stroke-width:16.2319">Q</tspan>
      </text>
      <text xml:space="preserve" style="font-style:normal;font-weight:normal;font-size:259.711px;line-height:1.25;font-family:sans-serif;clip-rule:evenodd;display:inline;fill:#b3b3b3;fill-opacity:1;fill-rule:evenodd;stroke:none;stroke-width:16.2319;image-rendering:optimizeQuality;shape-rendering:geometricPrecision;text-rendering:geometricPrecision" x="6297.4253" y="-1184.8125" id="text1706-6-9-5-0-37" transform="scale(1,-1)">
        <tspan sodipodi:role="line" id="tspan1704-2-4-5-3-50" x="6297.4253" y="-1184.8125" style="font-size:259.711px;fill:#b3b3b3;stroke-width:16.2319">P</tspan>
      </text>
      <text xml:space="preserve" style="font-style:normal;font-weight:normal;font-size:259.711px;line-height:1.25;font-family:sans-serif;clip-rule:evenodd;display:inline;fill:#b3b3b3;fill-opacity:1;fill-rule:evenodd;stroke:none;stroke-width:16.2319;image-rendering:optimizeQuality;shape-rendering:geometricPrecision;text-rendering:geometricPrecision" x="15921.634" y="-2818.4834" id="text1706-6-9-5-0-37-5" transform="scale(1,-1)">
        <tspan sodipodi:role="line" id="tspan1704-2-4-5-3-50-9" x="15921.634" y="-2818.4834" style="font-size:259.711px;fill:#b3b3b3;stroke-width:16.2319">K</tspan>
      </text>
      <text xml:space="preserve" style="font-style:normal;font-weight:normal;font-size:259.711px;line-height:1.25;font-family:sans-serif;clip-rule:evenodd;display:inline;fill:#b3b3b3;fill-opacity:1;fill-rule:evenodd;stroke:none;stroke-width:16.2319;image-rendering:optimizeQuality;shape-rendering:geometricPrecision;text-rendering:geometricPrecision" x="12281.071" y="-2801.5505" id="text1706-6-9-5-0-37-6" transform="scale(1,-1)">
        <tspan sodipodi:role="line" id="tspan1704-2-4-5-3-50-3" x="12281.071" y="-2801.5505" style="font-size:259.711px;fill:#b3b3b3;stroke-width:16.2319">L</tspan>
      </text>
      <text xml:space="preserve" style="font-style:normal;font-weight:normal;font-size:259.711px;line-height:1.25;font-family:sans-serif;clip-rule:evenodd;display:inline;fill:#b3b3b3;fill-opacity:1;fill-rule:evenodd;stroke:none;stroke-width:16.2319;image-rendering:optimizeQuality;shape-rendering:geometricPrecision;text-rendering:geometricPrecision" x="309.54327" y="-11115.582" id="text1706-6-9-5-0-37-65" transform="scale(1,-1)">
        <tspan sodipodi:role="line" id="tspan1704-2-4-5-3-50-7" x="309.54327" y="-11115.582" style="font-size:259.711px;fill:#b3b3b3;stroke-width:16.2319">P</tspan>
      </text>
      <text xml:space="preserve" style="font-style:normal;font-weight:normal;font-size:259.711px;line-height:1.25;font-family:sans-serif;clip-rule:evenodd;display:inline;fill:#b3b3b3;fill-opacity:1;fill-rule:evenodd;stroke:none;stroke-width:16.2319;image-rendering:optimizeQuality;shape-rendering:geometricPrecision;text-rendering:geometricPrecision" x="3949.9834" y="-11087.736" id="text1706-6-9-5-0-5-9" transform="scale(1,-1)">
        <tspan sodipodi:role="line" id="tspan1704-2-4-5-3-2-0" x="3949.9834" y="-11087.736" style="font-size:259.711px;fill:#b3b3b3;stroke-width:16.2319">Q</tspan>
      </text>
    </g>
  </g>
</svg>
