<?xml version="1.0" encoding="UTF-8" standalone="no"?>
<svg xmlns:dc="http://purl.org/dc/elements/1.1/" xmlns:cc="http://creativecommons.org/ns#" xmlns:rdf="http://www.w3.org/1999/02/22-rdf-syntax-ns#" xmlns:svg="http://www.w3.org/2000/svg" xmlns="http://www.w3.org/2000/svg" xmlns:sodipodi="http://sodipodi.sourceforge.net/DTD/sodipodi-0.dtd" xmlns:inkscape="http://www.inkscape.org/namespaces/inkscape" xml:space="preserve" width="297mm" height="210mm" style="shape-rendering:geometricPrecision; text-rendering:geometricPrecision; image-rendering:optimizeQuality; fill-rule:evenodd; clip-rule:evenodd" viewBox="0 0 297 210" version="1.1" id="svg206" sodipodi:docname="moldeComRosto.svg" inkscape:version="1.0.2 (e86c870879, 2021-01-15)">
  <title id="title1035">Molde com Rosto</title>
  <metadata id="metadata210">
    <rdf:RDF>
      <cc:Work rdf:about="">
        <dc:format>image/svg+xml</dc:format>
        <dc:type rdf:resource="http://purl.org/dc/dcmitype/StillImage" />
        <dc:title>Molde com Rosto</dc:title>
      </cc:Work>
    </rdf:RDF>
  </metadata>
  <sodipodi:namedview pagecolor="#ffffff" bordercolor="#666666" borderopacity="1" objecttolerance="10" gridtolerance="10" guidetolerance="10" inkscape:pageopacity="0" inkscape:pageshadow="2" inkscape:window-width="1366" inkscape:window-height="705" id="namedview208" showgrid="false" inkscape:zoom="2.7113492" inkscape:cx="744.65391" inkscape:cy="330.79186" inkscape:window-x="-8" inkscape:window-y="-8" inkscape:window-maximized="1" inkscape:current-layer="layer1" />
  <defs id="defs113">
    <style type="text/css" id="style111">
      <![CDATA[
    .str0 {stroke:aqua;stroke-width:0.2}
    .fil0 {fill:none}
    .fil1 {fill:black}
   ]]>
    </style>
  </defs>
  <g inkscape:groupmode="layer" id="layer1" inkscape:label="Molde" style="display:inline">
    <g class="dsgn-0 cat-layer cat-no clip-ha" id="g1137" transform="matrix(0.95409766,0,0,1.0858761,105.72373,15.549885)">
      <g class="des-layer des-loaded" id="g1135">
        <path id="path3441" class="ss" style="fill:#bfbfbf;" d="m 97,72 c 1,-3 2,-7 3,-7 1,0 2,4 3,7 -3,-5 -3,-5 -6,0 z"></path>
         <path id="path3443" class="ss" style="fill:#bfbfbf;" d="m 97,72 c 1,1 2,2 3,3 1,-1 2,-2 3,-3 -2,1 -4,1 -6,0 z"></path>
         <path id="path3305-3" style="opacity:0.25;fill:#000000;" d="m 97,72 c 1,-3 2,-7 3,-7 1,0 2,4 3,7 -3,-5 -3,-5 -6,0 z"></path>
         <path id="path3308-6" style="opacity:0.25;fill:#000000;" d="m 97,72 c 1,1 2,2 3,3 1,-1 2,-2 3,-3 -2,1 -4,1 -6,0 z"></path>
         <path id="path3295-7" style="fill:#000000;" d="m 100,74 c -2.245957,-2.800892 -0.538763,-3.765755 0,-8 -1,3 -3,4 -3,6 0.156719,0.672057 1,1 3,2 z"></path>
      </g>
    </g>
  </g>
</svg>
