<?xml version="1.0" encoding="UTF-8" standalone="no"?>
<svg xmlns:dc="http://purl.org/dc/elements/1.1/" xmlns:cc="http://creativecommons.org/ns#" xmlns:rdf="http://www.w3.org/1999/02/22-rdf-syntax-ns#" xmlns:svg="http://www.w3.org/2000/svg" xmlns="http://www.w3.org/2000/svg" xmlns:sodipodi="http://sodipodi.sourceforge.net/DTD/sodipodi-0.dtd" xmlns:inkscape="http://www.inkscape.org/namespaces/inkscape" xml:space="preserve" width="297mm" height="210mm" style="shape-rendering:geometricPrecision; text-rendering:geometricPrecision; image-rendering:optimizeQuality; fill-rule:evenodd; clip-rule:evenodd" viewBox="0 0 297 210" version="1.1" id="svg206" sodipodi:docname="moldeComRosto.svg" inkscape:version="1.0.2 (e86c870879, 2021-01-15)">
  <title id="title1035">Molde com Rosto</title>
  <metadata id="metadata210">
    <rdf:RDF>
      <cc:Work rdf:about="">
        <dc:format>image/svg+xml</dc:format>
        <dc:type rdf:resource="http://purl.org/dc/dcmitype/StillImage" />
        <dc:title>Molde com Rosto</dc:title>
      </cc:Work>
    </rdf:RDF>
  </metadata>
  <sodipodi:namedview pagecolor="#ffffff" bordercolor="#666666" borderopacity="1" objecttolerance="10" gridtolerance="10" guidetolerance="10" inkscape:pageopacity="0" inkscape:pageshadow="2" inkscape:window-width="1366" inkscape:window-height="705" id="namedview208" showgrid="false" inkscape:zoom="2.7113492" inkscape:cx="744.65391" inkscape:cy="330.79186" inkscape:window-x="-8" inkscape:window-y="-8" inkscape:window-maximized="1" inkscape:current-layer="layer1" />
  <defs id="defs113">
    <style type="text/css" id="style111">
      <![CDATA[
    .str0 {stroke:aqua;stroke-width:0.2}
    .fil0 {fill:none}
    .fil1 {fill:black}
   ]]>
    </style>
  </defs>
  <g inkscape:groupmode="layer" id="layer1" inkscape:label="Molde" style="display:inline">
    <g class="dsgn-0 cat-layer cat-eb clip-ha" id="g1409" transform="matrix(0.66653502,0,0,0.66058606,134.61275,42.109896)">
      <g class="des-layer des-loaded" id="g1407">
        <path id="path959" style="opacity:0.25;fill:#ffffff;" d="m 85.760746,55.863219 c -1.828785,0.219264 -4.056607,-0.06125 -4.954056,0.257939 -0.539427,0.191856 2.723825,-2.019923 4.723603,-2.073542 1.840003,-0.0496 6.552493,1.419641 5.106803,1.510102 -1.625454,0.101709 -3.253415,0.110917 -4.87635,0.305501 z"></path>
        <path id="path3301" class="m" style="opacity:0.993;fill:#990000;" d="m 93.755972,53.692008 c -2.831649,-0.523416 -9.944089,-2.787874 -14.103404,3.4644 4.604568,-4.401371 9.381367,-1.131823 14.381367,-1.131823"></path>
        <path id="path1189" class="s" style="fill:#8c0201;" d="m 93.861969,55.62048 c -0.12924,-0.893391 -0.208232,-1.957108 -0.191976,-2.259608 0.01374,-0.255782 0.383553,0.963632 0.444096,1.886604 0.05571,0.849229 -0.15621,1.035969 -0.25212,0.373004 z"></path>
        <path id="path953" class="m" style="fill:#990000;" d="m 94.180581,55.642236 c -0.108538,-0.824186 -0.169684,-1.805505 -0.151868,-2.084572 0.01503,-0.235968 0.339062,0.888986 0.384845,1.740461 0.04212,0.783446 -0.152423,0.95572 -0.232977,0.344111 z"></path>
        <path id="path955" class="h" style="fill:#a62611;" d="m 94.461515,55.643667 c -0.06859,-0.824186 -0.08934,-1.805505 -0.06375,-2.084572 0.02158,-0.235968 0.272523,0.888986 0.28403,1.740461 0.01064,0.783446 -0.16938,0.95572 -0.220277,0.344111 z"></path>
        <path id="path957" class="s" style="fill:#8c0201;" d="m 93.533254,55.595133 c -0.16397,-0.905312 -0.284313,-1.983221 -0.279816,-2.289757 0.0038,-0.259195 0.421013,0.976489 0.517436,1.911775 0.08872,0.86056 -0.115937,1.049791 -0.23762,0.377982 z"></path>
        <path id="path961" style="opacity:0.25;fill:#ffffff;" d="m 114.2378,55.863219 c 1.82879,0.219264 4.05661,-0.06125 4.95406,0.257939 0.53942,0.191856 -2.72383,-2.019923 -4.72361,-2.073542 -1.84,-0.0496 -6.55249,1.419641 -5.1068,1.510102 1.62545,0.101709 3.25342,0.110917 4.87635,0.305501 z"></path>
        <path id="path963" class="m" style="opacity:0.993;fill:#990000;" d="m 106.24257,53.692008 c 2.83165,-0.523416 9.94409,-2.787874 14.10341,3.4644 -4.60457,-4.401371 -9.38137,-1.131823 -14.38137,-1.131823"></path>
        <path id="path965" class="s" style="fill:#8c0201;" d="m 106.13658,55.62048 c 0.12924,-0.893391 0.20823,-1.957108 0.19197,-2.259608 -0.0137,-0.255782 -0.38355,0.963632 -0.44409,1.886604 -0.0557,0.849229 0.15621,1.035969 0.25212,0.373004 z"></path>
        <path id="path967" class="m" style="fill:#990000;" d="m 105.81797,55.642236 c 0.10853,-0.824186 0.16968,-1.805505 0.15186,-2.084572 -0.015,-0.235968 -0.33906,0.888986 -0.38484,1.740461 -0.0421,0.783446 0.15242,0.95572 0.23298,0.344111 z"></path>
        <path id="path969" class="h" style="fill:#a62611;" d="m 105.53703,55.643667 c 0.0686,-0.824186 0.0893,-1.805505 0.0637,-2.084572 -0.0216,-0.235968 -0.27252,0.888986 -0.28403,1.740461 -0.0106,0.783446 0.16938,0.95572 0.22028,0.344111 z"></path>
        <path id="path971" class="s" style="fill:#8c0201;" d="m 106.46529,55.595133 c 0.16397,-0.905312 0.28432,-1.983221 0.27982,-2.289757 -0.004,-0.259195 -0.42101,0.976489 -0.51744,1.911775 -0.0887,0.86056 0.11594,1.049791 0.23762,0.377982 z"></path>
      </g>
    </g>
  </g>
</svg>
