<svg id="Set_of_64_UI_Icons" data-name="Set of 64 UI Icons" xmlns="http://www.w3.org/2000/svg" viewBox="0 0 32 32"><g id="nariz"><path d="M24.64,18.93C20.75,17.12,22.21,12.3,22,9.51a4.41,4.41,0,0,0-1.61-3.2c-2.31-2.07-6.48-1.83-8.73,0a4.23,4.23,0,0,0-1.54,3.25v5.62c0,4-7,4.24-4.69,9.12,1.15,2.52,5.43,3.64,8.4,2.32a4.82,4.82,0,0,0,4.46,0c6.51,2.63,12.22-4.21,6.39-7.64Zm.43,4.86c-.74,1.63-3.41,2.47-5.46,1.84A3.59,3.59,0,0,1,22,24.54c2.16-.36.09-2.87-3.58.19a3.09,3.09,0,0,1-4.72,0c-3.66-3.06-5.74-.55-3.58-.19a3.61,3.61,0,0,1,2.35,1.09c-4.63,1.3-7.92-3.41-4-5.66,4.51-2.13,3.21-7.15,3.37-10.46a2.82,2.82,0,0,1,.9-2,5.39,5.39,0,0,1,6.68,0,2.82,2.82,0,0,1,.9,2v5.62c-.25,4.52,6.55,4.65,4.81,8.66Zm0,0"/></g></svg>