<svg id="Set_of_64_UI_Icons" data-name="Set of 64 UI Icons" xmlns="http://www.w3.org/2000/svg" viewBox="0 0 32 32"><g id="boca"><path d="M30.49,15a22.6,22.6,0,0,1-4.1-2.75A16.06,16.06,0,0,1,25,10.8a13.39,13.39,0,0,0-3.44-2.91,4.54,4.54,0,0,0-4.89.45,1,1,0,0,1-1.26,0,4.54,4.54,0,0,0-4.89-.45A13.39,13.39,0,0,0,7,10.8a16.06,16.06,0,0,1-1.43,1.43A22.85,22.85,0,0,1,1.51,15a.84.84,0,0,0-.41,1.1,14.15,14.15,0,0,0,2.32,3.29,18.1,18.1,0,0,0,7.89,5,5.32,5.32,0,0,0,3.23,0,4.85,4.85,0,0,1,2.92,0,5.31,5.31,0,0,0,3.23,0,18.1,18.1,0,0,0,7.89-5,14.15,14.15,0,0,0,2.32-3.29.84.84,0,0,0-.41-1.1ZM20.14,22.76a3.52,3.52,0,0,1-2.13,0,6.67,6.67,0,0,0-4,0,3.52,3.52,0,0,1-2.13,0,16.27,16.27,0,0,1-7.08-4.47,14.64,14.64,0,0,1-1.7-2.22,19.33,19.33,0,0,0,5.27-4.14,11.73,11.73,0,0,1,3-2.55,2.74,2.74,0,0,1,2.94.28,2.77,2.77,0,0,0,3.46,0,2.74,2.74,0,0,1,2.94-.28,11.73,11.73,0,0,1,3,2.55,19.33,19.33,0,0,0,5.27,4.14,16,16,0,0,1-8.78,6.69ZM16,16.59"/><path d="M5.74,15.68a8.13,8.13,0,0,0,5.08.68,9.88,9.88,0,0,0,2.41-.85A3.35,3.35,0,0,1,14.62,15a3.94,3.94,0,0,1,1.41.35,1.45,1.45,0,0,0,1,0c.34-.1.73-.34,1.23-.5a5.68,5.68,0,0,1,2.85.09,10.93,10.93,0,0,0,5.11.33l0,.1A7.93,7.93,0,0,1,21,16a6.39,6.39,0,0,0-2.4-.11c-.36.07-.75.28-1.26.41a2.38,2.38,0,0,1-1.55-.17,3.66,3.66,0,0,0-1.13-.38,2.82,2.82,0,0,0-1.11.34,10.81,10.81,0,0,1-2.62.77,8.45,8.45,0,0,1-5.2-1.09Z"/></g></svg>