<svg id="Set_of_64_UI_Icons" data-name="Set of 64 UI Icons" xmlns="http://www.w3.org/2000/svg" viewBox="0 0 32 32"><g id="olho"><path id="olho-2" data-name="olho" d="M26.12,11.59A17.32,17.32,0,0,0,15.33,8.18C11.15,8.31,8.38,10,5.6,11.59,3.29,13,1.21,14.18,1.22,15.86c0,1,1.49,2,4.38,4.2,7,4.79,13.89,5.24,20.52,0,2.51-2,5.72-2.1,4.31-3.87C27.14,12.06,26.12,11.59,26.12,11.59ZM15.86,21.71c-4.53,0-9.12-2.75-12.35-5.88,7.4-6.05,14.35-10.18,24.69,0C25,19,20.38,21.71,15.86,21.71Zm0,0"/><path id="bola_olho" data-name="bola olho" d="M16,11.35A4.88,4.88,0,0,0,10.91,16,4.88,4.88,0,0,0,16,20.65,4.88,4.88,0,0,0,21.09,16,4.88,4.88,0,0,0,16,11.35Zm-.3,8.58a4,4,0,0,1-3.79-4.22,4.06,4.06,0,0,1,4.39-3.64,4,4,0,0,1,3.79,4.22A4.06,4.06,0,0,1,15.7,19.93Z"/></g></svg>