<?xml version="1.0" encoding="UTF-8" standalone="no"?>
<svg xmlns:dc="http://purl.org/dc/elements/1.1/" xmlns:cc="http://creativecommons.org/ns#" xmlns:rdf="http://www.w3.org/1999/02/22-rdf-syntax-ns#" xmlns:svg="http://www.w3.org/2000/svg" xmlns="http://www.w3.org/2000/svg" xmlns:sodipodi="http://sodipodi.sourceforge.net/DTD/sodipodi-0.dtd" xmlns:inkscape="http://www.inkscape.org/namespaces/inkscape" width="768" height="576" viewBox="0 0 203.2 152.4" version="1.1" id="svg8" inkscape:version="1.0.2 (e86c870879, 2021-01-15)" sodipodi:docname="boca01.svg">
   <defs id="defs2" />
   <sodipodi:namedview id="base" pagecolor="#ffffff" bordercolor="#666666" borderopacity="1.0" inkscape:pageopacity="0.0" inkscape:pageshadow="2" inkscape:zoom="0.49497475" inkscape:cx="467.78386" inkscape:cy="520.66862" inkscape:document-units="mm" inkscape:current-layer="layer1" inkscape:document-rotation="0" showgrid="false" units="px" inkscape:window-width="1350" inkscape:window-height="728" inkscape:window-x="0" inkscape:window-y="0" inkscape:window-maximized="0" />
   <metadata id="metadata5">
      <rdf:RDF>
         <cc:Work rdf:about="">
            <dc:format>image/svg+xml</dc:format>
            <dc:type rdf:resource="http://purl.org/dc/dcmitype/StillImage" />
            <dc:title></dc:title>
         </cc:Work>
      </rdf:RDF>
   </metadata>
   <g inkscape:label="Layer 1" inkscape:groupmode="layer" id="layer1">
      <g id="g54" transform="matrix(8.1435649,0,0,8.1435649,-713.67257,-596.98371)">
         <path id="path3293" style="fill:#000000;" d="m 94,83 c 2,1 4,1 6,1 2,0 4,0 6,-1 -2,-1 -4,-1 -6,-1 -2,0 -4,0 -6,1 z"></path>
         <path id="path3309" class="ss" style="fill:#bfbfbf;" d="m 100,85.875 c -0.825,0 -2.241319,0.800009 -2.999406,2.065347 1.358462,-0.81531 1.793295,-1.08466 2.975982,-1.065347 0.850674,0.01389 1.698204,0.25035 2.997734,1.098474 C 102.05225,86.544164 100.825,85.875 100,85.875 Z"></path>
         <path id="path3309-3" class="ss" style="fill:#bfbfbf;" d="m 93.981861,83.998057 c -1.121815,-0.926469 -0.864496,-1.489669 0.06647,-2.185221 -1.89555,0.577653 -1.876468,1.41171 -0.06647,2.185221 z"></path>
         <path id="path3455" style="opacity:0.25;fill:#000000;" d="m 100,85.875 c -0.825,0 -2.241319,0.800009 -2.999406,2.065347 1.358462,-0.81531 1.793295,-1.08466 2.975982,-1.065347 0.850674,0.01389 1.698204,0.25035 2.997734,1.098474 C 102.05225,86.544164 100.825,85.875 100,85.875 Z"></path>
         <path id="path3424" class="ss" style="fill:#bfbfbf;" d="m 106.15601,84.091754 c 0.86415,-0.973318 0.6771,-1.513093 -0.25386,-2.208645 1.63788,0.483954 1.89989,1.41171 0.25386,2.208645 z"></path>
      </g>
   </g>
</svg>
