<?xml version="1.0" encoding="UTF-8" standalone="no"?>
<svg xmlns:dc="http://purl.org/dc/elements/1.1/" xmlns:cc="http://creativecommons.org/ns#" xmlns:rdf="http://www.w3.org/1999/02/22-rdf-syntax-ns#" xmlns:svg="http://www.w3.org/2000/svg" xmlns="http://www.w3.org/2000/svg" xmlns:sodipodi="http://sodipodi.sourceforge.net/DTD/sodipodi-0.dtd" xmlns:inkscape="http://www.inkscape.org/namespaces/inkscape" width="768" height="576" viewBox="0 0 203.2 152.4" version="1.1" id="svg8" inkscape:version="1.0.2 (e86c870879, 2021-01-15)" sodipodi:docname="nariz01.svg">
   <defs id="defs2" />
   <sodipodi:namedview id="base" pagecolor="#ffffff" bordercolor="#666666" borderopacity="1.0" inkscape:pageopacity="0.0" inkscape:pageshadow="2" inkscape:zoom="0.49497475" inkscape:cx="467.78386" inkscape:cy="520.66862" inkscape:document-units="mm" inkscape:current-layer="layer1" inkscape:document-rotation="0" showgrid="false" units="px" inkscape:window-width="1350" inkscape:window-height="728" inkscape:window-x="0" inkscape:window-y="0" inkscape:window-maximized="0" />
   <metadata id="metadata5">
      <rdf:RDF>
         <cc:Work rdf:about="">
            <dc:format>image/svg+xml</dc:format>
            <dc:type rdf:resource="http://purl.org/dc/dcmitype/StillImage" />
            <dc:title></dc:title>
         </cc:Work>
      </rdf:RDF>
   </metadata>
   <g inkscape:label="Layer 1" inkscape:groupmode="layer" id="layer1">
      <g class="des-layer des-loaded" id="g133" transform="matrix(9.5994605,0,0,9.5994605,-857.38339,-584.7182)">
         <path id="path4268" class="ss" style="fill:#bfbfbf;" d="m 95,72 c 2,-1.023438 3,-1 5,0 2,-1 3,-1.000001 5,0 -0.0105,1.544661 -2.95255,1.073297 -4.99773,1.026575 C 98.011775,73.081414 95,73.551317 95,72 Z"></path>
         <path id="path4264" class="ss" style="fill:#bfbfbf;" d="m 97.270796,69 c 0,-5 1.132583,-8.066291 2.132583,-9.066291 0,3 -1.132583,2.066291 -2.132583,9.066291 z"></path>
         <path id="path3846" style="fill:#000000;" d="m 96,73 c -0.508706,-0.285811 -0.643456,-0.445286 -0.669333,-0.996564 -0.04369,-0.930714 0.501456,-1.968363 0.890299,-2.309979 -0.739316,0.236131 -1.321632,1.457346 -1.324699,2.200781 C 94.893467,72.568024 95.349748,73.016858 96,73 Z"></path>
         <path id="path4267" style="fill:#000000;" d="m 104,73 c 0.50871,-0.285811 0.64346,-0.445286 0.66933,-0.996564 0.0437,-0.930714 -0.50145,-1.968363 -0.8903,-2.309979 0.73932,0.236131 1.32164,1.457346 1.3247,2.200781 C 105.10653,72.568024 104.65025,73.016858 104,73 Z"></path>
         <path id="path3770" style="opacity:0.25;fill:#000000;" d="m 95,72 c 2,-1.023438 3,-1 5,0 2,-1 3,-1.000001 5,0 -0.0105,1.544661 -2.95255,1.073297 -4.99773,1.026575 C 98.011775,73.081414 95,73.551317 95,72 Z"></path>
         <path id="path3776" style="fill:#000000;" d="m 98.536392,72.222565 a 1.3590719,0.36603653 3.6114441 0 1 -0.496266,0.461173 1.3590719,0.36603653 3.6114441 0 1 -1.83166,-0.221833 1.3590719,0.36603653 3.6114441 0 1 0.351248,-0.478736 1.3590719,0.36603653 3.6114441 0 1 1.859481,0.183928"></path>
         <path id="path4262" style="fill:#000000;" d="m 101.45029,72.222566 a 0.36603653,1.3590719 86.388556 0 0 0.49626,0.461172 0.36603653,1.3590719 86.388556 0 0 1.83166,-0.221832 0.36603653,1.3590719 86.388556 0 0 -0.35124,-0.478737 0.36603653,1.3590719 86.388556 0 0 -1.85949,0.183928"></path>
         <path id="path4266" style="opacity:0.25;fill:#000000;" d="m 97.270796,69 c 0,-5 1.132583,-8.066291 2.132583,-9.066291 0,3 -1.132583,2.066291 -2.132583,9.066291 z"></path>
      </g>
   </g>
</svg>
