<?xml version="1.0" encoding="UTF-8" standalone="no"?>
<svg xmlns:dc="http://purl.org/dc/elements/1.1/" xmlns:cc="http://creativecommons.org/ns#" xmlns:rdf="http://www.w3.org/1999/02/22-rdf-syntax-ns#" xmlns:svg="http://www.w3.org/2000/svg" xmlns="http://www.w3.org/2000/svg" xmlns:sodipodi="http://sodipodi.sourceforge.net/DTD/sodipodi-0.dtd" xmlns:inkscape="http://www.inkscape.org/namespaces/inkscape" width="768" height="576" viewBox="0 0 203.2 152.4" version="1.1" id="svg8" inkscape:version="1.0.2 (e86c870879, 2021-01-15)" sodipodi:docname="sombrancelha01.svg">
   <defs id="defs2" />
   <sodipodi:namedview id="base" pagecolor="#ffffff" bordercolor="#666666" borderopacity="1.0" inkscape:pageopacity="0.0" inkscape:pageshadow="2" inkscape:zoom="0.49497475" inkscape:cx="467.78386" inkscape:cy="520.66862" inkscape:document-units="mm" inkscape:current-layer="layer1" inkscape:document-rotation="0" showgrid="false" units="px" inkscape:window-width="1350" inkscape:window-height="728" inkscape:window-x="0" inkscape:window-y="0" inkscape:window-maximized="0" />
   <metadata id="metadata5">
      <rdf:RDF>
         <cc:Work rdf:about="">
            <dc:format>image/svg+xml</dc:format>
            <dc:type rdf:resource="http://purl.org/dc/dcmitype/StillImage" />
            <dc:title></dc:title>
         </cc:Work>
      </rdf:RDF>
   </metadata>
   <g inkscape:label="Layer 1" inkscape:groupmode="layer" id="layer1">
      <g class="des-layer des-loaded" id="g20" transform="matrix(4.4571423,0,0,4.5078011,-343.02706,-172.29914)">
         <path id="path3301" class="m" style="opacity:0.993;fill:#990000;" d="m 88.283057,52.824725 c -2.835418,0.101013 -5.588394,0.943668 -8.630489,4.331683 2.455704,-2.347336 5.297612,-3.857462 7.936622,-3.90438 2.309265,-0.04106 4.42961,1.116901 6.444745,2.772557 0.990142,0.415869 -3.177534,-3.291537 -5.750878,-3.19986 z"></path>
         <path id="path953" class="m" style="opacity:0.993;fill:#990000;" d="m 111.71078,52.824725 c 2.83542,0.101013 5.58839,0.943668 8.63049,4.331683 -2.4557,-2.347336 -5.29761,-3.857462 -7.93662,-3.90438 -2.30927,-0.04106 -4.42961,1.116901 -6.44475,2.772557 -0.99014,0.415869 3.17754,-3.291537 5.75088,-3.19986 z"></path>
      </g>
   </g>
</svg>
