<?xml version="1.0" encoding="UTF-8" standalone="no"?>
<svg xmlns:dc="http://purl.org/dc/elements/1.1/" xmlns:cc="http://creativecommons.org/ns#" xmlns:rdf="http://www.w3.org/1999/02/22-rdf-syntax-ns#" xmlns:svg="http://www.w3.org/2000/svg" xmlns="http://www.w3.org/2000/svg" xmlns:sodipodi="http://sodipodi.sourceforge.net/DTD/sodipodi-0.dtd" xmlns:inkscape="http://www.inkscape.org/namespaces/inkscape" width="768" height="576" viewBox="0 0 203.2 152.4" version="1.1" id="svg8" inkscape:version="1.0.2 (e86c870879, 2021-01-15)" sodipodi:docname="moldeComRosto.svg">
     <defs id="defs2">
          <style type="text/css" id="style111">
               <![CDATA[
    .str0 {stroke:aqua;stroke-width:0.2}
    .fil0 {fill:none}
    .fil1 {fill:black}
   ]]>
          </style>
          <style type="text/css" id="style111-4">
               <![CDATA[
    .str0 {stroke:aqua;stroke-width:0.2}
    .fil0 {fill:none}
    .fil1 {fill:black}
   ]]>
          </style>
          <style type="text/css" id="style111-0">
               <![CDATA[
    .str0 {stroke:aqua;stroke-width:0.2}
    .fil0 {fill:none}
    .fil1 {fill:black}
   ]]>
          </style>
          <style type="text/css" id="style111-9">
               <![CDATA[
    .str0 {stroke:aqua;stroke-width:0.2}
    .fil0 {fill:none}
    .fil1 {fill:black}
   ]]>
          </style>
     </defs>
     <sodipodi:namedview id="base" pagecolor="#ffffff" bordercolor="#666666" borderopacity="1.0" inkscape:pageopacity="0.0" inkscape:pageshadow="2" inkscape:zoom="0.49497475" inkscape:cx="467.78386" inkscape:cy="520.66862" inkscape:document-units="mm" inkscape:current-layer="layer1" inkscape:document-rotation="0" showgrid="false" units="px" inkscape:window-width="1350" inkscape:window-height="728" inkscape:window-x="0" inkscape:window-y="0" inkscape:window-maximized="0" />
     <metadata id="metadata5">
          <rdf:RDF>
               <cc:Work rdf:about="">
                    <dc:format>image/svg+xml</dc:format>
                    <dc:type rdf:resource="http://purl.org/dc/dcmitype/StillImage" />
                    <dc:title></dc:title>
               </cc:Work>
          </rdf:RDF>
     </metadata>
     <g inkscape:label="Layer 1" inkscape:groupmode="layer" id="layer1">
          <g style="clip-rule:evenodd;fill-rule:evenodd;image-rendering:optimizeQuality;shape-rendering:geometricPrecision;text-rendering:geometricPrecision" id="g38" transform="matrix(3.513365,0,0,3.513365,-605.61075,-237.17341)">
               <g id="layer1-5" inkscape:label="Molde" style="display:inline">
                    <g class="dsgn-0 cat-layer cat-mo clip-ha" id="g1061" transform="matrix(0.93039093,0,0,0.88177258,107.77686,26.256364)">
                         <g class="des-layer des-loaded" id="g1059">
                              <path id="path3976-3" class="m" style="fill:#990000;" d="m 94.367285,83.313819 c 0.927025,-1.027696 2.468613,-1.956707 3.111856,-2.176046 1.009291,-0.344157 2.002823,0.957759 2.536799,0.9326 0.45016,0.02233 1.35629,-1.550344 2.99904,-0.468443 0.51464,0.338939 1.99823,0.867515 2.58712,1.772471 -1.70693,1.803007 -3.8114,3.08487 -5.64241,3.08487 -1.831024,0 -3.558294,-0.168906 -5.592405,-3.145452 z"></path>
         <path id="path956-9" class="outlinef" style="fill:#000000;" d="m 100.15011,83.487034 c -0.0523,8.63e-4 -0.11292,0.0017 -0.180956,0.0023 -0.7237,0.0072 -2.017513,0.01264 -3.294877,-0.03539 -1.247898,-0.05255 -2.276102,-0.294021 -2.296473,-0.151508 -0.02469,0.172721 1.068171,0.576445 2.282978,0.676182 1.295721,0.112682 2.697845,0.08247 3.308829,0.07942 0.05707,-2.81e-4 0.106109,-3.98e-4 0.146499,-2.29e-4 0.78599,0.0033 2.10491,-0.03414 3.39946,-0.184421 1.13346,-0.127539 2.10434,-0.448948 2.08488,-0.539007 -0.0309,-0.142593 -0.93453,0.0043 -2.09919,0.05949 -1.40853,0.05975 -2.23403,0.07468 -3.35115,0.09312 z m -0.0239,2.49417 c -0.0756,0.0043 -0.168902,0.0077 -0.275705,0.0075 -0.856141,-0.0023 -2.154923,-0.142182 -3.430772,-0.897849 -1.177438,-0.697389 -2.002219,-1.873942 -2.058202,-1.759384 -0.06916,0.141519 0.776105,1.511621 2.013214,2.296887 1.336857,0.848582 2.692649,0.944751 3.474416,0.943113 0.100623,-2.49e-4 0.186539,-0.003 0.249549,-0.0054 0.91509,-0.03389 2.09779,-0.347825 3.44651,-1.273419 1.2026,-0.825312 2.12601,-1.867448 2.09029,-1.950336 -0.0544,-0.126473 -0.93667,0.688357 -2.07435,1.405313 -1.27737,0.804982 -2.39192,1.173663 -3.43494,1.233727 z m -0.354255,-3.770722 c 0.05224,0.01912 0.1156,0.0386 0.186538,0.05133 0.466897,0.04248 0.613587,-0.222845 1.122137,-0.47243 0,0 0,0 0,0 0.45304,-0.201001 0.99911,-0.303162 1.49064,-0.01212 0.77814,0.453706 1.58562,0.671038 2.13704,0.98518 0.55141,0.314141 0.87424,0.69041 0.90738,0.612941 0.0418,-0.09769 -0.25433,-0.597594 -0.82098,-1.023046 -0.5607,-0.420986 -1.37858,-0.702064 -2.09771,-1.134976 -0.60076,-0.355129 -1.22315,-0.249714 -1.71495,-0.0216 0,0 0,0 0,0 -0.50351,0.21364 -0.80386,0.50162 -0.98721,0.45497 -0.04012,-0.0047 -0.07682,-0.01492 -0.10682,-0.02534 -0.17523,-0.06076 -0.404335,-0.25444 -0.72521,-0.40013 -0.442188,-0.205841 -0.977785,-0.33497 -1.540312,-0.214284 -1.772896,0.393778 -3.305902,2.201439 -3.264881,2.297733 0.07687,0.180455 1.650513,-1.418447 3.308077,-1.712209 0,0 0,0 0,0 0.488303,-0.09038 0.970538,0.02961 1.392591,0.225332 0.233671,0.111773 0.473893,0.300926 0.71367,0.388603 z"></path>
      </g>
                    </g>
               </g>
          </g>
     </g>
</svg>
