<?xml version="1.0" encoding="UTF-8" standalone="no"?>
<svg xmlns:dc="http://purl.org/dc/elements/1.1/" xmlns:cc="http://creativecommons.org/ns#" xmlns:rdf="http://www.w3.org/1999/02/22-rdf-syntax-ns#" xmlns:svg="http://www.w3.org/2000/svg" xmlns="http://www.w3.org/2000/svg" xmlns:sodipodi="http://sodipodi.sourceforge.net/DTD/sodipodi-0.dtd" xmlns:inkscape="http://www.inkscape.org/namespaces/inkscape" width="768" height="576" viewBox="0 0 203.2 152.4" version="1.1" id="svg8" inkscape:version="1.0.2 (e86c870879, 2021-01-15)" sodipodi:docname="moldeComRosto.svg">
     <defs id="defs2">
          <style type="text/css" id="style111">
               <![CDATA[
    .str0 {stroke:aqua;stroke-width:0.2}
    .fil0 {fill:none}
    .fil1 {fill:black}
   ]]>
          </style>
          <style type="text/css" id="style111-4">
               <![CDATA[
    .str0 {stroke:aqua;stroke-width:0.2}
    .fil0 {fill:none}
    .fil1 {fill:black}
   ]]>
          </style>
          <style type="text/css" id="style111-0">
               <![CDATA[
    .str0 {stroke:aqua;stroke-width:0.2}
    .fil0 {fill:none}
    .fil1 {fill:black}
   ]]>
          </style>
          <style type="text/css" id="style111-9">
               <![CDATA[
    .str0 {stroke:aqua;stroke-width:0.2}
    .fil0 {fill:none}
    .fil1 {fill:black}
   ]]>
          </style>
     </defs>
     <sodipodi:namedview id="base" pagecolor="#ffffff" bordercolor="#666666" borderopacity="1.0" inkscape:pageopacity="0.0" inkscape:pageshadow="2" inkscape:zoom="0.49497475" inkscape:cx="467.78386" inkscape:cy="520.66862" inkscape:document-units="mm" inkscape:current-layer="layer1" inkscape:document-rotation="0" showgrid="false" units="px" inkscape:window-width="1350" inkscape:window-height="728" inkscape:window-x="0" inkscape:window-y="0" inkscape:window-maximized="0" />
     <metadata id="metadata5">
          <rdf:RDF>
               <cc:Work rdf:about="">
                    <dc:format>image/svg+xml</dc:format>
                    <dc:type rdf:resource="http://purl.org/dc/dcmitype/StillImage" />
                    <dc:title></dc:title>
               </cc:Work>
          </rdf:RDF>
     </metadata>
     <g inkscape:label="Layer 1" inkscape:groupmode="layer" id="layer1">
          <g style="clip-rule:evenodd;fill-rule:evenodd;image-rendering:optimizeQuality;shape-rendering:geometricPrecision;text-rendering:geometricPrecision" id="g63" transform="matrix(2.8249833,0,0,2.8249833,-468.44042,-172.64036)">
               <g id="layer1-54" inkscape:label="Molde" style="display:inline">
                    <g class="dsgn-0 cat-layer cat-no clip-ha" id="g1137" transform="matrix(0.95409766,0,0,1.0858761,105.72373,15.549885)">
                         <g class="des-layer des-loaded" id="g1135">
                              <path id="path3455" class="ss" style="fill:#bfbfbf;" d="M 95.98773,73.226601 C 97.151701,71.686171 99.000005,67 100.00001,60 c 0,7 2,11 3,14 -3,-6 -3,-6 -6.000008,0 z"></path>
         <path id="path3457" class="ss" style="fill:#bfbfbf;" d="m 97.000002,74 c 1.000003,1 2.000003,2 3.000008,3 1,-1 2,-2 3,-3 -2,1 -4.000005,1 -6.000008,0 z"></path>
         <path id="path3837" style="opacity:0.25;fill:#000000;" d="m 100.00001,60 c 0,7 2,11 3,14 -3,-6 -3,-6 -6.000008,0 1.913953,-3.288985 2.148762,-4.86523 3.000008,-14 z"></path>
         <path id="path3839" style="opacity:0.25;fill:#000000;" d="m 97.000002,74 c 1.000003,1 2.000003,2 3.000008,3 1,-1 2,-2 3,-3 -2,1 -4.000005,1 -6.000008,0 z"></path>
         <path id="path3459" style="opacity:0.5;fill:#000000;" d="M 95.98773,73.226601 C 97.151701,71.686171 99.000005,67 100.00001,60 99.374738,67.082873 98.452651,72.917814 97.000002,74 Z"></path>
         <path id="path3841" style="fill:#000000;" d="m 100.00001,76 c -2.000005,-3 0,-8 0,-16 -1.000005,7 -1.000005,10 -3.000008,14 1.000003,1 1.000003,1 3.000008,2 z"></path>
       </g>
                    </g>
               </g>
          </g>
     </g>
</svg>
